<?xml version="1.0" standalone="no"?>
<!DOCTYPE svg PUBLIC "-//W3C//DTD SVG 20010904//EN"
 "http://www.w3.org/TR/2001/REC-SVG-20010904/DTD/svg10.dtd">
<svg version="1.0" xmlns="http://www.w3.org/2000/svg"
 width="1280.000000pt" height="1127.000000pt" viewBox="0 0 1280.000000 1127.000000"
 preserveAspectRatio="xMidYMid meet">

<g transform="translate(0.000000,1127.000000) scale(0.100000,-0.100000)"
fill="#000000" stroke="none">
<path d="M3998 11254 c-34 -18 -63 -73 -73 -139 -4 -27 -24 -81 -46 -121 -24
-42 -45 -100 -53 -140 -8 -40 -35 -113 -65 -174 -28 -58 -55 -128 -61 -157 -7
-40 -22 -67 -60 -115 -63 -78 -121 -192 -127 -252 -5 -40 -8 -45 -27 -41 -106
24 -1042 117 -1105 110 -76 -8 -121 -32 -138 -72 -20 -49 -9 -89 54 -195 73
-122 166 -308 192 -383 19 -56 45 -315 31 -315 -3 0 -39 34 -80 76 -89 90
-230 199 -320 247 -73 40 -295 98 -445 118 -115 15 -230 7 -281 -19 -30 -15
-69 -21 -169 -27 -176 -9 -326 -29 -409 -55 -60 -19 -72 -20 -100 -8 -23 10
-94 13 -269 13 l-238 0 -35 -37 c-29 -32 -34 -45 -34 -85 0 -71 18 -167 47
-256 21 -64 39 -93 94 -159 77 -91 159 -211 209 -306 48 -91 143 -164 410
-316 138 -79 616 -319 840 -421 243 -112 385 -228 512 -420 95 -144 125 -208
147 -312 11 -50 31 -121 46 -156 20 -52 28 -94 35 -203 11 -157 14 -178 41
-289 27 -111 67 -231 97 -290 23 -45 24 -57 18 -138 -7 -100 -13 -82 112 -307
97 -173 185 -309 283 -437 44 -56 79 -107 79 -112 0 -22 91 -244 153 -374 116
-243 166 -315 367 -522 145 -150 213 -243 335 -454 223 -389 380 -553 917
-955 175 -131 196 -150 187 -167 -5 -11 -43 -59 -84 -108 -316 -380 -891 -622
-1810 -762 -114 -17 -165 -20 -274 -15 l-135 6 -70 42 c-156 91 -368 268 -551
459 -137 143 -230 250 -471 539 -121 146 -227 270 -235 276 -8 6 -171 96 -362
200 -391 211 -366 191 -426 348 -43 112 -52 123 -119 141 -68 19 -142 51 -142
63 0 5 -29 38 -64 73 -71 72 -130 105 -171 95 -41 -10 -100 -71 -126 -129 -20
-46 -23 -68 -23 -182 -1 -206 38 -353 154 -590 83 -169 150 -278 280 -450 523
-694 1555 -1531 2820 -2288 1100 -657 1878 -767 2440 -343 205 154 341 333
543 711 47 88 153 284 236 435 84 151 199 369 257 483 110 219 126 239 222
298 41 25 74 35 150 46 53 8 122 25 153 37 l57 23 38 -20 c27 -14 61 -21 110
-23 39 -1 81 -7 95 -14 13 -7 61 -49 107 -92 57 -55 103 -89 146 -108 55 -25
68 -37 105 -94 55 -84 161 -183 233 -218 65 -32 165 -58 223 -58 38 0 42 -3
100 -81 70 -95 137 -157 206 -190 46 -22 52 -30 94 -117 47 -96 107 -168 145
-174 16 -2 45 -38 100 -124 111 -175 190 -276 304 -390 179 -178 315 -244 508
-244 69 0 184 21 258 48 37 14 90 22 165 25 61 2 151 13 202 22 l91 18 74 -45
c56 -35 87 -47 131 -52 89 -10 138 -39 227 -133 74 -79 82 -85 110 -79 38 7
94 45 184 125 38 34 72 61 77 61 4 0 10 -9 14 -20 9 -27 61 -69 122 -97 43
-20 56 -22 74 -13 19 10 26 6 69 -38 26 -27 66 -74 89 -105 53 -73 73 -77 156
-39 78 37 147 104 195 190 73 131 65 122 113 122 55 0 120 40 201 124 85 88
96 109 96 187 0 123 -79 284 -205 418 -59 63 -72 71 -104 71 -70 0 -167 21
-227 49 -153 71 -165 218 -27 353 48 47 397 269 505 321 72 35 137 106 182
200 23 48 61 101 115 160 70 75 81 92 81 123 0 54 -25 86 -97 123 -73 38 -92
62 -100 122 -8 56 -55 122 -133 187 -36 30 -108 96 -160 146 -126 121 -188
153 -306 162 -77 6 -93 11 -120 34 -27 24 -44 28 -122 34 -69 6 -98 4 -125 -7
-65 -28 -175 -108 -235 -171 -57 -61 -150 -207 -174 -273 -7 -18 -14 -33 -18
-33 -3 0 -21 28 -40 62 -51 91 -143 212 -185 244 -20 16 -72 59 -114 95 -43
36 -125 101 -182 144 -57 43 -151 115 -209 160 -58 45 -124 94 -147 108 -30
19 -45 36 -52 62 -13 48 -3 105 18 105 9 0 21 4 27 10 6 6 37 5 84 -2 110 -15
328 -4 425 22 44 11 116 27 159 35 100 18 185 59 261 127 33 30 94 81 136 115
41 34 111 100 155 148 43 48 111 121 151 163 82 89 135 170 153 239 6 26 29
102 51 168 181 561 169 1032 -41 1520 -40 95 -48 123 -54 204 -9 117 -27 208
-61 297 -67 179 -220 394 -336 473 -25 17 -41 39 -53 74 -23 63 -101 143 -176
180 -107 52 -200 70 -372 71 -99 1 -161 -3 -168 -10 -7 -7 -1 -20 21 -45 69
-76 73 -124 23 -264 -72 -200 -110 -454 -87 -575 8 -37 6 -52 -11 -85 -15 -29
-21 -58 -20 -107 0 -65 -1 -66 -32 -81 -20 -10 -48 -40 -74 -80 -39 -60 -44
-65 -85 -69 -58 -7 -96 -36 -144 -111 -33 -50 -51 -67 -91 -85 -28 -13 -74
-48 -104 -78 l-53 -55 -98 183 c-380 709 -742 1260 -1154 1758 -475 574 -1061
1087 -1546 1353 -490 270 -1222 517 -2065 697 -317 68 -290 59 -330 113 -57
75 -129 229 -255 547 -132 334 -253 588 -320 672 -70 89 -150 119 -217 82z
m115 -49 c89 -37 186 -213 362 -658 101 -258 121 -325 108 -375 -5 -20 -11
-13 -45 50 -44 80 -116 186 -143 208 -16 13 -17 10 -15 -45 4 -90 3 -94 -20
-88 -15 4 -20 0 -20 -15 0 -11 -7 -23 -16 -26 -20 -8 -16 -14 -43 64 -37 103
-108 240 -163 314 -62 83 -124 131 -201 154 l-58 17 6 40 c8 47 44 130 72 164
l19 23 32 -26 c81 -69 230 -273 307 -423 20 -40 38 -73 40 -73 6 0 -6 74 -22
130 -9 30 -16 75 -17 100 -1 37 -10 58 -53 120 -63 90 -158 189 -224 232 -55
35 -62 59 -28 102 24 30 66 34 122 11z m-113 -603 c37 -19 67 -44 92 -77 39
-51 90 -177 103 -252 4 -28 13 -44 25 -48 30 -10 82 -75 77 -96 -8 -29 19 -49
64 -49 43 0 46 -5 25 -55 -12 -27 -21 -35 -40 -35 -34 0 -33 8 1 21 37 14 13
29 -47 29 -54 0 -62 5 -79 48 -13 31 -34 45 -30 20 5 -39 -3 -40 -35 -9 -30
29 -37 31 -56 21 -17 -9 -28 -8 -55 4 -18 9 -38 16 -44 16 -6 0 -20 9 -31 20
-51 51 -174 109 -168 79 2 -8 -7 -15 -19 -17 -34 -5 -28 -14 35 -50 l57 -32
-60 7 c-33 3 -69 7 -80 7 -24 0 -35 13 -35 44 0 12 -4 22 -10 22 -5 0 -10 -9
-10 -20 0 -24 -18 -27 -26 -5 -4 10 -13 13 -26 9 -19 -6 -20 -3 -13 47 5 37
17 66 37 92 29 36 32 37 93 37 121 0 236 -53 348 -161 28 -27 52 -47 54 -46 8
9 -81 140 -135 199 -65 69 -150 121 -218 134 -38 7 -40 15 -20 79 10 36 15 41
51 46 61 9 115 0 175 -29z m-1508 -488 c213 -96 469 -238 753 -418 93 -59 208
-122 275 -151 501 -215 1267 -664 1475 -864 138 -133 203 -188 307 -263 149
-105 281 -222 484 -429 129 -131 202 -197 255 -231 41 -25 124 -91 185 -147
94 -84 126 -121 197 -228 103 -155 156 -221 340 -427 109 -121 161 -190 225
-293 124 -205 236 -360 462 -642 162 -202 219 -281 270 -376 77 -140 197 -327
286 -443 65 -84 72 -103 53 -145 -8 -19 -5 -38 21 -102 79 -199 149 -571 176
-940 3 -50 13 -100 21 -113 l14 -23 47 41 c156 135 365 271 591 383 114 57
129 62 201 66 57 2 112 -4 203 -23 68 -14 138 -26 154 -26 55 0 58 12 57 244
-1 187 -4 226 -28 341 -53 260 -133 511 -238 753 -64 148 -426 871 -496 992
-163 281 -346 515 -690 884 -122 131 -182 203 -193 232 -48 125 -276 376 -524
579 -66 54 -163 139 -215 190 -124 120 -218 200 -365 311 -207 156 -545 395
-670 474 -264 168 -578 329 -819 421 -55 21 -97 39 -92 39 11 0 241 -60 421
-111 208 -59 533 -221 745 -373 121 -87 402 -313 560 -451 277 -243 821 -750
863 -804 17 -23 69 -69 115 -103 46 -35 120 -103 164 -153 112 -126 324 -411
392 -528 87 -149 224 -350 375 -551 107 -141 142 -197 163 -253 15 -40 42 -96
61 -125 19 -29 72 -144 117 -256 100 -250 187 -447 274 -620 108 -216 143
-377 186 -857 10 -121 25 -238 33 -260 11 -32 30 -53 98 -104 112 -84 222
-148 270 -156 88 -15 164 70 189 212 21 118 -16 448 -75 686 -48 188 -183 541
-330 857 -37 80 -75 165 -85 190 -133 336 -413 784 -718 1146 -46 55 -127 167
-181 249 -206 316 -377 516 -877 1027 -221 226 -262 260 -624 518 -163 115
-188 136 -115 95 194 -110 322 -203 550 -400 593 -513 1139 -1148 1582 -1840
149 -233 373 -617 457 -784 37 -73 125 -302 170 -441 21 -63 68 -174 105 -246
65 -125 68 -134 74 -220 6 -87 31 -183 67 -254 11 -23 19 -70 23 -140 3 -58
16 -187 28 -288 l22 -182 -21 -84 c-11 -46 -36 -121 -56 -166 l-35 -82 20 -41
c32 -61 71 -169 60 -165 -5 1 -36 39 -69 84 -33 44 -83 100 -111 124 -34 29
-51 50 -49 62 2 15 -12 25 -62 47 -36 15 -117 56 -180 91 -63 35 -144 74 -180
86 -39 14 -68 31 -73 42 -12 26 -52 32 -210 32 -143 0 -233 -15 -365 -62 -172
-60 -307 -138 -516 -297 -152 -116 -216 -157 -266 -171 -40 -12 -152 7 -385
64 -772 188 -904 217 -1090 236 -248 26 -511 -71 -900 -330 -119 -79 -158
-100 -354 -185 -191 -83 -226 -92 -298 -75 -50 11 -67 22 -172 120 -126 117
-316 321 -461 495 -230 276 -405 518 -717 990 -124 187 -264 399 -313 470 -48
72 -110 171 -137 220 -334 605 -626 1748 -742 2905 -26 256 -51 609 -51 715
l1 80 30 -35 c131 -153 286 -378 459 -669 153 -258 283 -431 613 -818 180
-211 197 -234 265 -368 78 -152 219 -336 562 -730 91 -104 192 -224 224 -265
79 -99 167 -199 305 -345 187 -198 332 -388 456 -600 96 -166 232 -359 322
-463 164 -187 307 -389 529 -751 78 -128 129 -200 148 -212 23 -14 50 -18 125
-17 112 0 143 -8 541 -143 404 -137 619 -189 787 -189 147 0 193 40 193 165 0
211 -66 537 -162 799 -95 261 -427 882 -558 1046 -172 214 -342 459 -506 729
-142 234 -440 545 -954 996 -69 61 -133 119 -143 130 -26 29 -47 80 -47 113 0
23 -20 48 -107 133 -183 178 -413 361 -833 662 -74 54 -178 129 -230 167 -278
205 -656 407 -1095 586 -97 39 -138 63 -215 123 -184 144 -455 313 -835 521
-82 45 -154 86 -160 91 -12 12 31 48 57 49 9 0 72 -25 140 -56z m1741 -131
c-7 -2 -19 -2 -25 0 -7 3 -2 5 12 5 14 0 19 -2 13 -5z m54 -9 c-3 -3 -12 -4
-19 -1 -8 3 -5 6 6 6 11 1 17 -2 13 -5z m56 -11 c-7 -2 -19 -2 -25 0 -7 3 -2
5 12 5 14 0 19 -2 13 -5z m92 -13 c27 -7 27 -8 5 -8 -14 0 -38 4 -55 8 -27 7
-27 8 -5 8 14 0 39 -4 55 -8z m68 -17 c-7 -2 -19 -2 -25 0 -7 3 -2 5 12 5 14
0 19 -2 13 -5z m50 -10 c-7 -2 -19 -2 -25 0 -7 3 -2 5 12 5 14 0 19 -2 13 -5z
m50 -10 c-7 -2 -19 -2 -25 0 -7 3 -2 5 12 5 14 0 19 -2 13 -5z m140 -24 c59
-12 105 -24 103 -26 -4 -5 -218 36 -225 43 -8 7 13 4 122 -17z m177 -39 c20
-6 21 -8 5 -8 -11 0 -31 4 -45 8 -20 6 -21 8 -5 8 11 0 31 -4 45 -8z m90 -20
c20 -6 21 -8 5 -8 -11 0 -31 4 -45 8 -20 6 -21 8 -5 8 11 0 31 -4 45 -8z m57
-16 c-3 -3 -12 -4 -19 -1 -8 3 -5 6 6 6 11 1 17 -2 13 -5z m40 -10 c-3 -3 -12
-4 -19 -1 -8 3 -5 6 6 6 11 1 17 -2 13 -5z m50 -10 c-3 -3 -12 -4 -19 -1 -8 3
-5 6 6 6 11 1 17 -2 13 -5z m-3486 -139 c46 -8 148 -32 225 -53 l141 -39 121
-97 c138 -110 215 -191 311 -326 76 -106 83 -130 39 -130 -39 0 -66 15 -107
59 -19 19 -36 31 -38 25 -7 -20 47 -128 81 -164 95 -101 99 -132 26 -184 -52
-37 -61 -59 -38 -96 10 -16 9 -24 -8 -47 -11 -15 -32 -35 -46 -46 -23 -17 -30
-18 -82 -6 -31 7 -58 10 -61 8 -2 -3 2 -28 9 -56 10 -37 11 -53 3 -56 -18 -6
39 -92 111 -168 119 -125 129 -147 152 -349 11 -98 51 -205 104 -275 12 -16
32 -66 45 -110 13 -44 27 -83 32 -86 5 -3 16 -58 24 -121 9 -67 25 -137 37
-165 16 -36 21 -65 19 -118 -2 -90 84 -615 108 -654 12 -19 28 -6 36 29 4 17
10 30 15 30 11 0 40 -77 90 -245 l41 -136 356 -587 c196 -323 357 -595 357
-604 0 -9 3 -15 7 -12 4 2 26 -29 50 -69 23 -39 49 -82 57 -94 8 -13 12 -23 9
-23 -3 0 -29 38 -57 85 -48 80 -67 104 -54 70 5 -13 -81 -133 -97 -134 -4 -1
-12 19 -19 44 -7 25 -15 43 -17 41 -3 -3 0 -21 7 -41 10 -32 10 -38 -6 -49
-16 -12 -16 -14 2 -39 25 -35 40 -34 48 5 5 24 9 29 18 20 15 -15 32 -16 23
-2 -11 18 1 11 21 -12 19 -22 19 -23 -1 -8 -11 8 22 -25 73 -74 79 -76 122
-128 122 -151 0 -14 -23 0 -86 53 -38 31 -84 68 -102 80 l-32 24 11 -29 c7
-15 44 -58 83 -95 70 -67 71 -67 40 -68 -17 0 -34 -3 -38 -7 -4 -4 31 -44 77
-88 73 -68 86 -86 92 -121 6 -37 10 -42 44 -53 21 -6 57 -11 80 -11 48 0 50
-5 16 -32 -34 -26 -32 -33 15 -47 45 -13 75 -51 41 -51 -11 0 -21 5 -23 11 -2
6 -14 2 -28 -10 -14 -11 -20 -20 -13 -21 17 0 34 -34 53 -105 11 -42 21 -61
34 -63 10 -2 50 -28 88 -58 39 -30 77 -54 87 -54 28 -1 49 -25 53 -60 3 -29 0
-35 -22 -40 -34 -8 -31 -30 8 -53 27 -16 37 -17 64 -8 39 14 48 4 48 -60 0
-33 7 -57 25 -83 14 -20 25 -41 25 -46 0 -27 -40 -2 -112 67 -89 86 -153 177
-149 209 3 31 -27 57 -61 52 -25 -4 -34 3 -77 61 -27 36 -88 129 -136 206
-206 329 -279 428 -450 605 -130 135 -149 161 -242 340 -79 150 -134 277 -184
420 -23 66 -44 107 -70 135 -108 119 -234 315 -347 542 -79 157 -80 159 -79
233 0 68 -3 81 -35 140 -65 117 -116 354 -124 578 -4 106 -11 161 -24 198 -11
28 -28 100 -40 160 -15 77 -30 125 -55 169 -92 165 -236 329 -390 445 -49 38
-140 119 -202 182 -79 81 -136 129 -196 166 -46 29 -123 81 -171 117 -95 71
-147 97 -223 113 -113 25 -205 80 -273 166 -54 68 -161 137 -200 130 -33 -7
-60 15 -195 156 -127 133 -140 145 -179 154 -33 8 -86 57 -86 79 0 9 11 29 25
45 30 35 30 34 8 90 -9 25 -21 41 -28 38 -23 -8 -35 17 -35 71 0 59 -22 113
-45 113 -29 0 -15 18 31 40 42 21 55 22 207 17 89 -3 172 -8 183 -12 13 -4 52
-53 92 -113 133 -201 291 -360 466 -470 84 -53 243 -128 252 -119 2 2 -22 21
-53 42 -196 129 -412 356 -541 568 -39 63 -40 67 -22 77 33 17 141 39 250 49
143 14 152 9 331 -171 116 -117 168 -161 268 -226 121 -80 298 -176 456 -246
96 -43 90 -38 -140 113 -209 137 -349 246 -457 357 -91 94 -158 174 -158 190
0 11 35 28 75 37 43 10 126 6 206 -8z m2561 -40 c23 -19 41 -25 81 -26 29 0
75 -4 102 -10 28 -5 145 -24 260 -43 173 -27 218 -38 258 -61 41 -23 55 -26
93 -20 25 3 63 4 84 0 33 -6 44 -14 70 -56 16 -27 34 -49 39 -49 5 0 13 -9 16
-20 3 -11 25 -31 48 -44 37 -21 49 -23 97 -16 83 11 128 -18 114 -75 -5 -19 4
-30 53 -67 66 -51 153 -108 165 -108 4 0 8 14 8 30 0 38 27 50 115 50 l63 0
55 -59 c55 -60 75 -99 54 -106 -55 -16 -66 -14 -108 21 -30 25 -49 34 -63 30
-12 -3 -30 -6 -41 -6 -12 0 5 -13 40 -32 33 -17 113 -62 179 -100 89 -51 122
-65 128 -56 5 7 13 20 17 28 14 24 97 45 127 32 13 -7 24 -19 24 -27 0 -24
-25 -67 -54 -94 -24 -23 -24 -25 -10 -53 9 -17 19 -75 23 -131 6 -69 13 -104
22 -109 8 -5 63 -38 123 -74 60 -36 150 -86 198 -111 76 -39 94 -53 122 -97
18 -28 91 -106 162 -173 166 -157 226 -230 295 -361 30 -59 65 -125 77 -147
12 -22 27 -60 34 -85 21 -72 85 -103 307 -150 129 -27 168 -52 221 -141 24
-40 66 -96 94 -124 42 -43 64 -56 123 -75 59 -18 76 -20 88 -10 12 10 15 10
15 -4 0 -11 9 -16 29 -16 34 0 53 -16 71 -61 13 -31 13 -33 -28 -71 -38 -35
-42 -43 -42 -87 0 -75 -19 -163 -44 -201 -13 -19 -29 -49 -36 -67 -9 -25 -28
-40 -88 -71 -43 -22 -90 -42 -105 -46 -46 -11 -93 20 -169 113 -39 47 -218
235 -398 416 -180 182 -467 472 -638 645 -266 268 -311 310 -306 283 4 -19 2
-33 -3 -33 -26 0 -148 92 -236 177 -60 58 -115 102 -145 115 -26 12 -73 37
-105 57 -47 30 -57 40 -52 57 5 24 -29 60 -118 124 -40 28 -81 78 -122 149 -4
7 -22 53 -39 101 l-31 88 -236 229 c-188 183 -252 238 -318 277 -68 40 -89 47
-116 43 -35 -6 -85 21 -85 46 -1 12 -878 395 -987 431 -35 11 -63 23 -63 26 0
3 81 4 180 2 150 -2 184 0 202 13 33 22 76 19 110 -10z m1965 -121 c222 -75
471 -171 650 -250 110 -49 185 -92 307 -174 89 -61 175 -121 191 -135 26 -23
27 -25 8 -20 -20 5 -23 2 -23 -19 0 -14 -8 -34 -18 -44 -18 -18 -17 -19 21
-41 21 -12 36 -25 33 -28 -3 -3 -38 5 -77 17 -41 12 -85 19 -101 16 -23 -5
-41 6 -120 72 -51 42 -113 93 -138 113 -62 49 -170 119 -186 119 -7 0 -14 -14
-16 -30 l-3 -30 -65 52 c-171 140 -375 284 -513 363 -84 48 -145 85 -135 82 9
-3 92 -31 185 -63z m-2616 -374 c25 -14 25 -50 0 -50 -11 0 -26 -3 -35 -6 -13
-5 -16 1 -16 30 0 39 14 45 51 26z m289 -125 c23 -28 3 -64 -46 -85 -25 -11
-48 -20 -50 -20 -2 0 -4 15 -4 34 0 25 5 36 19 41 10 3 26 14 36 25 22 24 29
25 45 5z m-220 -45 c0 -11 -12 -34 -27 -50 l-28 -31 -33 34 c-46 47 -36 67 34
67 47 0 54 -3 54 -20z m-201 -99 c25 -27 62 -67 82 -90 28 -32 43 -41 69 -41
18 0 71 -16 119 -34 118 -48 163 -54 195 -28 l26 20 -31 6 c-29 6 -31 8 -25
38 6 32 49 77 73 78 13 0 29 -83 18 -99 -4 -7 5 -11 22 -11 36 0 158 -90 166
-122 3 -13 9 -86 13 -163 l7 -140 47 -65 c67 -90 96 -116 245 -212 l131 -85
43 34 c50 38 54 39 72 17 10 -13 9 -24 -5 -65 -10 -28 -17 -51 -15 -52 85 -56
92 -59 114 -47 13 7 44 37 70 67 l47 54 22 -20 c12 -12 34 -21 48 -21 15 0 34
-3 43 -6 22 -9 45 -57 45 -93 0 -41 -33 -61 -116 -69 l-66 -7 43 -31 c24 -17
116 -68 204 -114 171 -89 252 -147 335 -237 64 -69 93 -126 114 -224 19 -87
49 -138 146 -254 36 -44 79 -99 95 -123 l28 -43 33 32 c24 24 35 28 38 18 2
-8 12 -35 21 -61 21 -56 14 -71 -31 -66 -31 4 -33 2 -28 -22 13 -54 64 -151
105 -195 62 -68 110 -89 173 -79 75 11 140 8 174 -10 37 -19 99 -90 118 -133
12 -28 19 -33 48 -33 57 0 81 -14 94 -57 12 -41 24 -104 26 -141 0 -13 20 -44
42 -70 l42 -47 26 24 c25 23 27 23 45 7 20 -18 51 -125 51 -177 0 -36 38 -150
116 -352 30 -76 54 -150 54 -163 0 -21 -11 -30 -62 -54 -68 -32 -114 -38 -142
-17 -15 11 -19 35 -25 144 -6 98 -12 138 -25 158 -25 37 -104 85 -142 85 -27
0 -34 -5 -43 -31 -14 -40 -15 -37 12 -41 20 -3 22 -8 20 -56 -2 -63 -20 -83
-70 -80 -18 1 -38 -3 -45 -10 -32 -32 -57 3 -88 121 -25 100 -27 102 -74 140
-23 19 -50 51 -61 71 -22 41 -36 42 -49 3 -8 -23 -6 -31 17 -55 15 -15 27 -32
27 -36 0 -10 -62 -62 -71 -59 -13 4 -39 -77 -39 -123 0 -32 -4 -44 -12 -42
-15 5 -142 205 -153 239 -15 49 -56 117 -124 209 -44 59 -83 125 -102 175 -75
186 -143 293 -225 351 -27 19 -55 32 -64 29 -19 -6 -447 420 -474 472 -22 44
-20 73 9 102 l24 26 -19 44 c-11 24 -20 63 -20 87 0 59 -18 69 -165 89 -161
22 -258 41 -292 57 -15 7 -44 35 -63 61 -19 27 -72 96 -118 155 -86 111 -155
232 -167 292 -16 80 -161 298 -300 450 -70 76 -108 129 -142 195 -38 73 -64
107 -140 182 -110 107 -153 174 -193 298 -15 49 -32 98 -35 108 -13 33 17 18
64 -32z m776 -21 c8 -13 -12 -87 -26 -96 -16 -9 -68 44 -62 65 7 27 76 51 88
31z m3330 -71 c16 -19 13 -18 -17 5 -21 16 -38 30 -38 33 0 8 36 -16 55 -38z
m-36 -33 c15 -16 22 -34 20 -53 -3 -25 6 -39 61 -90 36 -33 71 -58 78 -55 7 2
39 1 69 -3 43 -5 63 -14 85 -35 31 -32 38 -80 13 -100 -13 -11 -11 -17 18 -50
34 -37 116 -224 104 -236 -3 -4 -22 -3 -42 0 -24 5 -65 32 -126 84 -50 42
-130 105 -178 140 -47 34 -94 72 -104 85 -26 33 -60 109 -61 137 -1 16 -12 32
-33 45 -30 19 -59 62 -49 72 2 3 13 0 23 -5 10 -5 36 -12 58 -15 22 -3 34 -3
28 0 -8 3 -13 22 -13 47 0 63 13 71 49 32z m-3079 -90 c6 -8 14 -48 17 -88 6
-81 -3 -109 -52 -160 l-26 -28 -56 53 c-31 28 -67 62 -80 74 -45 43 -21 83 52
83 28 0 45 9 78 40 47 45 50 46 67 26z m2042 -3 c26 -23 23 -35 -17 -76 -53
-55 -93 -48 -80 12 7 32 47 81 66 81 7 0 21 -7 31 -17z m-1792 -194 c30 -6 63
-12 72 -15 23 -7 32 -61 19 -111 -16 -60 -59 -71 -111 -27 -39 33 -56 67 -65
128 -7 46 -6 49 11 42 11 -4 44 -12 74 -17z m2020 -43 c14 -26 14 -28 -18 -57
-18 -16 -43 -29 -57 -29 -21 0 -25 5 -25 28 0 48 11 71 39 81 35 13 43 9 61
-23z m300 -161 c0 -38 -17 -72 -39 -78 -43 -11 -56 71 -19 118 l22 28 18 -23
c10 -12 18 -33 18 -45z m-2543 23 c62 -29 67 -38 52 -103 -7 -31 -18 -63 -25
-72 -12 -18 -17 -16 -111 53 -18 13 -26 13 -44 3 -31 -16 -49 10 -49 72 0 77
3 81 74 73 33 -3 80 -15 103 -26z m559 -70 c3 -5 -2 -18 -11 -28 -17 -18 -16
-19 10 -17 19 1 33 -6 47 -25 l21 -26 -21 -34 c-33 -53 -57 -71 -79 -59 -10 5
-26 12 -35 15 -14 4 -15 10 -7 41 13 45 10 49 -26 35 -22 -8 -30 -8 -37 2 -14
22 -9 44 15 65 49 45 106 59 123 31z m3230 -200 c12 -19 6 -79 -11 -104 -15
-23 -13 -26 46 -96 109 -131 192 -267 266 -438 25 -58 50 -114 56 -125 10 -19
10 -19 17 0 4 11 2 34 -3 51 -8 28 -6 37 14 63 19 24 29 29 49 25 32 -7 60
-32 60 -54 0 -28 -37 -67 -71 -74 l-32 -6 20 -23 c12 -12 31 -42 43 -66 12
-24 45 -67 73 -95 36 -36 46 -52 35 -54 -16 -3 -38 -42 -38 -70 0 -10 -11 -1
-27 23 -14 22 -52 67 -83 100 -41 43 -62 75 -74 115 -27 83 -88 210 -101 210
-31 0 -87 87 -119 187 -13 39 -29 62 -59 87 -52 43 -145 153 -174 208 -17 31
-20 44 -12 54 8 10 16 11 30 3 17 -8 19 -6 19 21 0 17 6 39 12 50 14 22 53 27
64 8z m-809 -71 c44 -58 47 -70 28 -106 -12 -24 -22 -31 -45 -31 -47 0 -131
21 -136 34 -5 14 21 91 42 123 10 16 24 23 47 23 26 -1 38 -9 64 -43z m941
-33 c50 -10 51 -39 3 -86 -23 -22 -47 -38 -53 -36 -16 6 -29 65 -22 101 6 29
17 32 72 21z m134 -158 c20 -24 22 -55 8 -108 -13 -45 -35 -55 -55 -24 -29 44
-46 141 -29 159 12 11 58 -5 76 -27z m-3095 -118 c57 -55 59 -65 22 -99 -18
-16 -37 -29 -42 -29 -22 0 -119 54 -132 74 -9 12 -15 44 -15 77 l0 57 66 -23
c39 -14 80 -37 101 -57z m2231 -60 c7 -7 44 -15 82 -19 108 -10 135 -44 82
-106 -27 -32 -28 -32 -74 -21 -59 14 -82 38 -102 106 -15 51 -11 63 12 40z
m3374 -103 c141 -30 233 -90 274 -180 13 -27 24 -57 24 -65 0 -9 29 -35 65
-58 77 -51 91 -68 185 -231 142 -243 182 -359 179 -521 -1 -63 4 -112 15 -145
20 -62 20 -63 0 -39 -14 18 -15 17 -10 -16 18 -117 18 -138 2 -161 -22 -32
-22 -99 1 -99 9 0 41 -19 71 -41 l55 -42 -7 39 c-5 28 -4 35 3 24 6 -8 11 -24
11 -35 0 -11 7 -33 16 -50 8 -16 17 -52 19 -80 2 -27 9 -79 14 -115 15 -94 13
-318 -4 -438 -19 -132 -56 -299 -105 -465 -20 -73 -41 -154 -45 -182 -7 -52
-36 -118 -57 -131 -7 -5 -9 -2 -5 9 18 48 28 105 26 155 -1 41 9 95 38 197 73
251 107 441 118 650 6 110 -6 329 -19 342 -8 8 -87 -41 -115 -70 l-23 -25 41
-26 c22 -14 48 -38 58 -52 24 -37 19 -108 -11 -175 -14 -30 -28 -66 -31 -81
-6 -24 -4 -27 27 -30 32 -3 33 -5 36 -49 2 -32 -2 -50 -12 -58 -11 -10 -13
-18 -6 -31 7 -13 4 -48 -10 -115 -10 -54 -21 -99 -24 -102 -2 -3 -3 24 -1 59
l4 63 -9 -60 c-5 -33 -7 -67 -4 -76 3 -10 -3 -19 -12 -23 -15 -6 -15 -4 -3 11
12 15 12 16 -6 11 -11 -3 -28 -9 -37 -13 -13 -5 -19 0 -24 19 -9 38 2 69 38
106 23 23 26 28 9 17 -13 -9 -31 -26 -40 -39 -16 -23 -18 -23 -161 -18 -135 5
-143 6 -112 19 31 13 60 47 49 58 -3 2 -8 -4 -11 -15 -7 -20 -45 -42 -75 -42
-10 0 -30 11 -45 25 -14 13 -26 20 -26 15 0 -5 17 -21 38 -35 l37 -25 -444 0
c-414 1 -445 0 -465 -17 -12 -10 -37 -29 -56 -41 l-35 -23 27 23 c15 13 38 31
52 41 21 14 26 26 26 58 0 46 -41 109 -70 109 -25 0 -29 9 -18 40 14 42 32 54
57 38 28 -17 37 -4 17 27 -11 17 -26 25 -45 25 -15 0 -36 9 -46 20 -16 18 -17
25 -6 60 6 22 15 40 20 40 11 0 62 -55 75 -82 16 -31 73 -37 107 -9 31 26 20
37 -55 50 -33 6 -62 13 -64 16 -3 3 5 16 18 29 22 25 22 25 4 57 -11 18 -36
41 -57 52 -23 12 -45 34 -58 58 -10 22 -26 39 -33 39 -13 0 -26 20 -26 40 0 5
25 20 55 34 50 23 55 28 55 57 0 20 -9 42 -22 56 -26 28 -38 29 -38 5 0 -10
-7 -27 -15 -38 -19 -29 -59 -20 -86 18 l-21 29 28 30 c32 34 31 36 -44 70 -54
24 -54 24 -127 -6 l-60 -24 35 29 c19 17 45 33 57 36 33 9 127 -22 200 -67 36
-22 67 -39 69 -37 2 2 -21 29 -50 60 -38 40 -69 62 -105 75 -28 10 -51 20 -51
24 0 22 53 77 94 98 73 37 132 34 231 -12 l80 -37 -49 44 c-26 24 -66 52 -87
61 -21 10 -39 24 -39 30 0 7 18 29 39 48 49 44 145 76 256 84 l80 7 -50 13
c-27 7 -80 12 -117 11 -76 -3 -78 -1 -78 65 1 94 47 146 178 203 34 15 61 29
59 31 -6 6 -167 -54 -185 -69 -13 -12 -14 -1 -9 97 6 123 39 257 107 445 55
151 53 217 -10 297 -11 14 -17 30 -13 36 8 13 210 2 305 -18z m-3423 -41 c17
-14 31 -35 31 -47 0 -28 -36 -87 -52 -87 -39 0 -86 22 -96 46 -19 40 -15 101
8 124 19 19 23 19 49 6 16 -9 43 -27 60 -42z m377 -91 c19 -25 17 -48 -6 -92
-21 -41 -73 -91 -95 -91 -19 0 -28 35 -20 76 4 25 16 41 45 60 22 15 42 35 45
45 8 24 14 24 31 2z m-2062 -19 c21 -8 22 -96 2 -113 -8 -7 -34 -11 -58 -9
-41 3 -43 5 -45 37 -5 57 51 104 101 85z m3157 -365 c12 -42 10 -109 -3 -114
-7 -3 -33 -6 -57 -7 l-45 -3 -24 63 c-13 35 -21 66 -17 70 6 7 111 21 130 17
5 -1 12 -12 16 -26z m-3143 -14 c14 -30 5 -85 -16 -102 -18 -15 -58 -17 -66
-4 -10 15 6 102 21 117 22 21 49 17 61 -11z m2480 -148 c11 -23 11 -34 2 -57
-18 -44 -35 -54 -67 -42 -16 6 -41 13 -56 16 -26 6 -27 9 -21 44 10 57 30 73
83 70 39 -3 48 -7 59 -31z m-2076 -33 c23 -18 26 -25 19 -55 -10 -44 -24 -69
-50 -93 -19 -17 -22 -18 -55 -2 -19 9 -39 16 -44 16 -34 0 -17 77 28 132 33
40 54 41 102 2z m2740 -24 c34 0 38 -3 38 -25 0 -35 -19 -72 -46 -90 -22 -14
-27 -14 -64 10 -37 23 -40 29 -40 68 0 24 3 46 6 49 3 4 20 2 37 -3 18 -5 49
-9 69 -9z m106 -141 c10 -16 21 -20 42 -17 28 4 28 4 56 -101 31 -121 43 -151
44 -108 0 20 7 30 26 37 46 18 72 12 89 -20 21 -41 20 -44 -25 -69 -31 -17
-44 -20 -59 -11 -11 5 -23 10 -26 10 -15 0 9 -88 35 -130 15 -25 40 -69 55
-97 25 -47 32 -53 60 -53 102 0 148 -67 73 -106 l-29 -15 26 -42 c38 -62 108
-203 135 -272 28 -73 37 -85 62 -85 24 0 45 -49 54 -126 7 -54 6 -57 -12 -49
-10 4 -39 11 -63 14 -41 6 -46 10 -87 76 -50 80 -51 85 -25 85 11 0 23 5 26
10 3 6 17 10 31 10 l25 0 -34 43 c-113 138 -419 660 -441 752 -4 16 -28 51
-53 78 -43 46 -45 51 -39 90 8 57 25 117 34 117 4 0 13 -9 20 -21z m-666 -91
c7 7 25 12 40 12 23 0 32 -7 42 -32 12 -26 11 -38 -1 -73 -26 -78 -78 -80
-149 -3 -52 55 -86 143 -70 185 6 13 18 6 66 -42 47 -46 62 -57 72 -47z
m-1848 -14 c12 -32 6 -91 -12 -107 -16 -15 -21 -14 -60 11 -36 23 -42 32 -42
63 0 20 3 39 7 42 3 4 28 7 54 7 33 0 49 -4 53 -16z m314 -266 c18 -18 15 -63
-5 -81 -10 -8 -51 -31 -92 -51 l-75 -36 -28 28 c-15 15 -28 34 -28 43 0 16 53
55 125 92 36 19 86 22 103 5z m1727 -25 c19 -58 8 -98 -33 -121 -77 -43 -112
-24 -112 60 0 60 15 86 52 91 68 9 82 4 93 -30z m-519 10 c28 -28 44 -77 35
-109 -5 -21 -20 -35 -52 -51 -60 -30 -83 -28 -113 8 -46 55 -30 105 45 143 63
31 63 31 85 9z m-1050 -237 c39 -39 46 -92 16 -119 -21 -19 -118 -44 -129 -33
-5 4 -10 43 -12 87 -3 75 -2 79 20 88 44 18 70 12 105 -23z m2558 -51 c28 -26
32 -49 15 -107 -15 -57 -44 -52 -74 15 -29 62 -30 66 -9 95 20 28 35 28 68 -3z
m-1172 -20 c9 -19 19 -25 45 -25 46 0 61 -33 44 -92 -16 -52 -34 -74 -83 -99
-50 -26 -86 -24 -130 6 -29 19 -40 36 -52 79 -20 68 -20 106 0 134 13 19 24
22 90 22 70 0 75 -2 86 -25z m460 -82 c28 -25 22 -143 -7 -143 -7 0 -18 -7
-25 -15 -17 -20 -39 -19 -77 4 l-32 20 19 40 c20 40 81 111 95 111 5 0 17 -7
27 -17z m1076 -248 c74 -157 136 -305 128 -305 -9 0 -111 169 -136 224 -15 34
-36 97 -48 141 -11 44 -24 89 -28 100 -19 53 12 -6 84 -160z m-3002 37 c38
-46 70 -105 58 -109 -5 -2 -26 -14 -48 -26 l-38 -24 -24 24 c-18 18 -24 35
-24 67 0 111 23 132 76 68z m1983 4 c40 -64 16 -119 -43 -96 -20 7 -26 16 -26
40 0 39 25 88 47 90 1 0 11 -15 22 -34z m-1799 -44 c0 -75 -17 -101 -54 -84
-31 14 -34 45 -9 96 14 31 26 40 56 45 4 0 7 -25 7 -57z m124 -24 c13 -52 8
-63 -43 -81 -27 -9 -50 -17 -52 -17 -2 0 -5 17 -5 38 -1 31 4 41 30 59 41 28
62 28 70 1z m1455 -29 c17 -51 13 -110 -12 -154 -22 -39 -24 -40 -81 -43 -72
-4 -86 7 -86 65 0 33 8 56 30 88 38 55 66 75 106 75 27 0 34 -5 43 -31z m-321
-33 c12 -15 -1 -144 -17 -174 l-13 -24 -25 24 c-31 28 -53 70 -53 98 0 32 58
99 80 93 11 -3 23 -10 28 -17z m-1410 -92 c21 -15 30 -48 15 -57 -5 -2 -20 -7
-35 -11 -27 -6 -28 -5 -28 32 0 55 10 63 48 36z m483 -66 c26 -7 39 -17 39
-28 0 -10 9 -37 20 -61 11 -24 20 -61 20 -81 0 -33 -4 -40 -43 -63 -56 -32
-67 -32 -67 5 0 21 -13 44 -45 80 -46 52 -65 94 -48 111 9 9 73 47 82 48 2 1
21 -4 42 -11z m1561 -49 c20 -24 39 -85 32 -104 -6 -15 -49 -25 -110 -25 -62
0 -88 27 -79 83 9 59 37 80 95 72 27 -4 52 -14 62 -26z m-1766 0 c24 -26 23
-93 -3 -170 -17 -51 -20 -54 -53 -56 -19 0 -56 -4 -82 -8 -42 -7 -49 -5 -73
19 -24 25 -26 31 -20 79 4 29 12 57 18 63 11 10 78 33 116 40 8 2 26 14 40 28
31 31 33 32 57 5z m1101 -50 c-3 -12 -1 -32 5 -45 14 -30 12 -32 -38 -40 -31
-4 -45 -2 -57 11 -25 25 -21 40 21 68 47 33 77 35 69 6z m1429 -4 c5 -19 13
-25 33 -25 17 0 38 -11 55 -29 24 -25 28 -38 27 -82 0 -29 -3 -54 -6 -57 -3
-3 -19 4 -35 16 -16 12 -32 22 -34 22 -3 0 -3 -20 0 -44 7 -48 9 -47 -61 -59
-12 -2 -18 -9 -16 -18 2 -8 6 -29 9 -48 4 -33 4 -34 -24 -27 -40 9 -76 37 -92
70 -12 24 -12 30 4 47 13 14 17 34 15 77 -1 43 3 64 19 87 11 17 20 38 20 47
0 17 42 47 67 48 7 0 15 -11 19 -25z m358 -151 c31 -99 49 -181 55 -244 5 -52
24 -153 41 -225 30 -120 32 -139 27 -250 -4 -116 -37 -295 -45 -247 -2 12 -8
22 -14 22 -6 0 -8 -8 -5 -17 38 -117 34 -129 -43 -135 -28 -1 -50 -2 -50 -1 0
1 15 37 33 80 19 43 46 116 62 162 l28 84 -27 146 c-33 185 -45 280 -46 358 0
38 -7 79 -20 108 -31 73 -51 160 -56 254 -7 110 2 97 60 -95z m-3621 27 c30
-11 56 -76 38 -94 -14 -14 -117 -22 -125 -9 -12 19 6 101 23 105 28 8 39 7 64
-2z m2165 -50 l13 -54 -35 -51 c-19 -28 -45 -61 -56 -74 l-20 -22 -48 36 c-26
20 -50 42 -54 49 -12 20 7 136 23 146 8 5 30 9 49 10 19 0 46 5 60 9 44 15 54
7 68 -49z m335 -36 c24 -10 30 -19 33 -48 3 -32 -1 -38 -34 -59 -20 -12 -40
-24 -44 -26 -4 -2 -21 12 -37 30 -32 35 -39 74 -20 109 11 22 40 20 102 -6z
m-2195 -59 c2 -21 -2 -44 -9 -52 -17 -21 -73 -18 -94 6 -17 19 -17 21 0 59 30
67 97 58 103 -13z m842 11 c0 -23 -7 -51 -15 -61 -14 -18 -16 -18 -45 14 -40
43 -37 71 10 86 19 7 38 10 43 7 4 -2 7 -23 7 -46z m2880 23 c11 -8 8 -9 -12
-4 -21 4 -27 1 -33 -16 -4 -12 -9 -19 -12 -17 -8 8 17 47 30 47 7 0 19 -5 27
-10z m551 0 c14 -8 19 -21 18 -53 -1 -69 -9 -79 -75 -93 -81 -17 -81 -17 -87
13 -6 34 5 57 51 106 37 38 59 45 93 27z m284 -34 c37 -56 -16 -143 -94 -153
l-41 -6 0 37 c0 52 32 110 72 129 43 21 45 21 63 -7z m-778 -28 c-3 -8 -6 -5
-6 6 -1 11 2 17 5 13 3 -3 4 -12 1 -19z m-3528 -35 c2 -126 0 -230 -5 -245 -7
-22 -42 -23 -90 -3 -28 11 -35 19 -29 32 3 10 10 52 15 94 11 94 26 128 65
145 42 19 43 18 44 -23z m375 15 c11 -44 6 -71 -25 -109 -17 -21 -28 -43 -24
-48 3 -6 23 -20 45 -32 50 -28 54 -40 26 -81 -28 -42 -50 -41 -142 5 -68 33
-69 34 -67 71 3 38 55 117 124 185 36 37 54 39 63 9z m4173 6 c-3 -3 -12 -4
-19 -1 -8 3 -5 6 6 6 11 1 17 -2 13 -5z m-749 -62 c7 -9 12 -28 10 -42 -3 -23
-7 -25 -63 -28 -42 -2 -70 3 -94 15 -35 18 -59 52 -29 40 10 -3 20 4 27 20 11
25 14 26 74 19 42 -4 66 -12 75 -24z m-1733 2 c18 -12 25 -25 25 -50 0 -18 -5
-36 -10 -39 -6 -4 -33 8 -60 25 -50 32 -63 50 -36 50 7 0 19 7 26 15 16 19 25
19 55 -1z m2289 -79 c4 -10 -10 -32 -39 -60 -47 -48 -84 -57 -119 -32 -17 12
-16 15 13 45 57 56 132 80 145 47z m166 -70 c0 -5 -5 -3 -10 5 -7 11 -11 4
-16 -28 -9 -55 -33 -72 -104 -72 -92 0 -91 10 11 79 85 57 92 60 105 44 7 -10
13 -22 14 -28z m-8030 -8 c0 -10 -4 -16 -10 -12 -5 3 -7 12 -3 21 3 8 2 14 -3
13 -21 -3 -28 2 -14 11 16 10 30 -4 30 -33z m7404 18 c11 -29 -14 -62 -51 -68
-50 -8 -66 0 -58 32 4 14 11 32 17 38 15 19 84 17 92 -2z m-7174 -25 c6 -11 8
-20 6 -20 -3 0 -10 9 -16 20 -6 11 -8 20 -6 20 3 0 10 -9 16 -20z m7354 -5
c51 -16 86 -40 86 -59 -1 -23 -38 -55 -72 -61 -39 -7 -139 28 -137 49 1 26 16
48 44 66 17 11 30 20 30 20 0 0 22 -7 49 -15z m-3408 -20 c24 -24 25 -53 2
-39 -7 4 -8 2 -4 -5 8 -12 -52 -43 -66 -35 -16 10 -8 83 10 93 25 15 30 14 58
-14z m975 -2 c21 -6 40 -48 32 -68 -4 -12 -13 -14 -37 -9 -38 8 -46 19 -46 63
0 28 3 32 18 26 9 -4 24 -9 33 -12z m406 -8 c20 -14 21 -18 8 -58 -7 -23 -16
-54 -19 -69 -10 -43 -43 -60 -91 -47 -66 18 -69 27 -29 86 32 48 87 103 103
103 3 0 16 -7 28 -15z m828 -100 c30 -29 32 -56 5 -80 -22 -20 -67 -14 -77 11
-9 24 16 94 33 94 8 0 26 -11 39 -25z m789 -27 c19 -27 21 -107 4 -113 -7 -2
-29 -1 -48 3 -32 7 -35 11 -38 46 -3 33 1 43 25 62 35 29 38 29 57 2z m684
-17 c9 -5 25 -12 35 -15 12 -4 17 -16 17 -40 0 -29 -5 -38 -30 -51 -41 -21
-44 -20 -74 25 -31 47 -32 58 -8 76 20 16 36 17 60 5z m-4334 -26 c21 -16 16
-59 -8 -68 -17 -7 -41 45 -32 68 7 18 15 19 40 0z m1743 -31 c8 -21 -5 -31
-49 -39 -43 -8 -49 4 -18 35 24 24 58 26 67 4z m1049 -104 c24 -10 32 -42 16
-66 -10 -15 -47 -23 -63 -13 -18 10 -16 83 2 124 l13 30 4 -33 c2 -24 10 -36
28 -42z m1088 55 c11 -8 15 -15 9 -15 -7 0 -15 5 -18 10 -24 38 -81 -26 -73
-81 3 -15 1 -26 -4 -23 -15 9 -8 58 12 92 21 35 44 40 74 17z m-3396 -24 c9
-4 33 -16 52 -25 20 -10 49 -39 68 -67 42 -65 35 -63 -16 4 -47 63 -97 84
-153 66 -19 -7 -38 -16 -44 -21 -5 -5 10 -2 34 7 60 21 61 19 13 -12 -29 -19
-42 -34 -42 -50 0 -35 56 -32 88 5 l24 27 -22 -32 c-17 -27 -28 -33 -56 -33
-39 0 -54 24 -54 85 0 27 5 35 28 43 35 13 58 14 80 3z m3442 -52 c0 -6 -5
-19 -11 -30 -15 -28 -29 -14 -16 16 12 25 27 33 27 14z m-3413 -91 c-3 -7 -5
-2 -5 12 0 14 2 19 5 13 2 -7 2 -19 0 -25z m-7504 -19 c12 -6 63 -51 112 -99
86 -83 93 -88 163 -105 87 -21 95 -29 151 -162 23 -54 51 -110 64 -124 12 -14
176 -112 364 -218 322 -181 345 -196 410 -264 68 -72 383 -452 383 -463 0 -3
-6 -2 -12 2 -7 4 -4 -2 6 -14 11 -12 16 -25 13 -29 -4 -3 1 -16 10 -27 12 -14
9 -13 -11 4 -15 14 -55 62 -88 108 -34 45 -63 81 -65 79 -3 -4 14 -37 110
-206 17 -30 25 -51 19 -47 -7 4 -23 -16 -43 -55 -29 -59 -30 -63 -13 -76 10
-7 13 -13 8 -13 -20 0 -63 56 -103 133 -23 43 -41 84 -41 92 0 16 -142 118
-194 140 -20 9 -71 18 -113 21 -68 6 -90 13 -170 56 -75 40 -107 65 -175 137
-46 49 -141 134 -211 191 -70 56 -135 112 -143 125 -14 22 -46 45 -148 105
l-38 23 7 -24 c18 -59 109 -233 173 -330 201 -305 502 -572 877 -778 61 -33
115 -64 120 -68 6 -4 17 -9 25 -11 8 -2 17 -7 20 -12 3 -4 24 -16 48 -25 24
-10 41 -19 39 -22 -3 -2 -50 16 -106 41 -559 248 -1061 724 -1477 1402 -88
144 -111 209 -114 319 -3 133 -3 135 36 171 37 36 69 42 107 23z m7648 -6 c13
-16 12 -17 -3 -4 -10 7 -18 15 -18 17 0 8 8 3 21 -13z m-154 -15 c-3 -8 -6 -5
-6 6 -1 11 2 17 5 13 3 -3 4 -12 1 -19z m3063 18 c0 -2 -7 -9 -15 -16 -13 -11
-14 -10 -9 4 5 14 24 23 24 12z m81 -17 l24 -20 -30 17 c-39 24 -40 24 -28 24
6 0 21 -9 34 -21z m-2963 -34 c-3 -3 -9 2 -12 12 -6 14 -5 15 5 6 7 -7 10 -15
7 -18z m1768 -35 c87 -60 175 -100 284 -128 64 -17 75 -23 81 -45 4 -14 17
-40 30 -58 21 -30 21 -31 1 -20 -23 12 -82 15 -82 4 0 -5 18 -18 39 -30 22
-13 56 -43 77 -69 31 -37 35 -47 23 -55 -8 -5 -20 -9 -26 -9 -7 0 -13 -4 -13
-9 0 -6 -12 -3 -27 5 -40 20 -111 17 -163 -7 l-45 -21 30 -14 c17 -7 39 -14
50 -14 11 -1 29 -6 40 -11 34 -15 -134 2 -214 22 -40 10 -112 35 -158 55 -85
37 -87 37 -187 31 -89 -5 -494 -72 -505 -83 -8 -8 24 -4 174 22 83 13 206 27
275 31 124 5 126 5 230 -31 156 -53 221 -66 370 -73 125 -5 140 -8 208 -39 94
-43 191 -107 272 -181 36 -33 128 -102 205 -154 77 -51 176 -129 221 -171 45
-43 88 -78 97 -78 33 0 217 -244 217 -288 0 -7 36 -51 79 -96 202 -211 248
-385 154 -585 -29 -61 -42 -163 -43 -343 0 -111 -17 -176 -101 -379 -95 -234
-171 -349 -230 -349 -44 0 -47 32 -27 263 9 104 9 140 0 149 -19 19 -101 9
-191 -23 -47 -17 -112 -40 -144 -51 -31 -12 -61 -18 -64 -14 -4 4 -6 71 -4
149 3 162 -5 197 -45 197 -31 0 -75 -45 -136 -137 -23 -36 -47 -63 -57 -63
-27 1 -196 75 -270 119 -109 64 -175 132 -269 274 -137 209 -237 300 -344 315
-23 3 -60 16 -82 28 -23 13 -53 24 -68 24 -29 0 -58 -31 -58 -62 0 -9 -8 -22
-19 -27 -10 -6 -33 -33 -51 -61 l-33 -51 -56 7 c-31 4 -74 12 -96 19 l-40 13
32 1 c30 1 32 3 38 49 10 82 19 100 75 166 l55 65 35 -34 c20 -19 38 -35 42
-35 3 0 10 19 16 43 6 24 22 58 34 77 25 37 85 83 98 75 23 -14 42 -110 38
-191 -5 -91 9 -101 19 -16 6 51 24 80 69 110 17 11 14 12 -23 8 -37 -4 -43 -2
-43 15 0 11 -6 35 -14 53 -13 31 -13 33 8 29 25 -5 86 34 156 100 53 50 62 52
31 9 -20 -30 -61 -107 -61 -118 0 -3 22 14 48 38 27 23 71 55 99 70 44 24 52
26 63 13 20 -24 6 -40 -79 -96 -82 -54 -87 -69 -27 -69 37 0 87 31 122 77 25
34 28 35 41 18 7 -11 13 -40 13 -66 l0 -48 -62 -33 c-34 -18 -77 -47 -96 -65
-34 -32 -35 -35 -29 -92 3 -42 16 -80 42 -130 43 -82 59 -87 25 -9 -13 29 -24
75 -24 101 -1 43 3 52 32 78 18 16 43 29 56 29 21 0 25 -5 24 -31 -1 -36 41
-85 66 -76 8 3 27 28 40 56 47 92 122 126 225 101 42 -10 59 -21 95 -64 24
-28 53 -71 66 -95 27 -55 50 -43 26 14 -18 43 -16 49 25 70 48 25 104 -7 223
-126 72 -74 101 -97 107 -87 13 20 11 141 -1 133 -19 -12 -38 15 -45 64 -6 44
-4 51 21 76 l28 28 -22 10 c-18 8 -27 6 -45 -11 -28 -27 -36 -27 -53 -4 -18
23 -17 57 1 72 8 7 24 31 34 54 20 44 49 77 124 143 44 38 46 42 27 48 -14 5
-39 -2 -72 -19 -28 -15 -52 -25 -54 -24 -1 2 3 24 10 51 8 33 25 61 56 92 24
25 49 45 56 45 6 0 19 10 30 22 18 20 18 21 1 15 -10 -4 -27 -7 -37 -7 -11 0
-35 -14 -55 -31 l-35 -31 0 31 c0 45 31 100 85 150 26 23 44 45 42 48 -7 6
-64 -24 -74 -39 -12 -19 -52 -40 -63 -33 -16 10 -12 26 20 93 29 62 29 62 72
62 l43 1 -62 29 c-46 21 -68 38 -87 69 -30 46 -59 53 -97 22 -21 -17 -26 -17
-45 -4 -27 18 -74 8 -74 -16 0 -32 -20 -40 -90 -34 -61 5 -72 3 -120 -23 -49
-26 -83 -62 -281 -289 -56 -64 -108 -115 -117 -115 -21 0 -34 32 -39 103 l-6
75 -38 4 c-20 2 -37 1 -36 -2 1 -3 -15 -21 -36 -40 -21 -18 -46 -49 -55 -69
-12 -25 -32 -44 -65 -61 -48 -25 -48 -25 -63 -5 -16 20 -15 79 1 118 4 9 3 17
-3 17 -6 0 -18 -20 -27 -44 -20 -52 -66 -99 -92 -94 -10 2 -25 18 -34 35 -9
18 -19 30 -21 27 -12 -11 -18 67 -8 87 7 11 10 23 7 25 -2 2 -18 -23 -36 -56
-40 -74 -63 -92 -101 -78 -20 6 -35 6 -49 -2 -50 -26 -30 -103 46 -175 42 -40
52 -45 93 -45 25 1 62 7 82 14 59 21 59 -7 0 -63 -47 -45 -82 -103 -82 -135 0
-41 -38 11 -64 87 -5 16 -12 14 -63 -21 -32 -21 -80 -51 -106 -67 l-48 -27 7
41 c5 31 3 41 -7 40 -17 0 -87 -88 -134 -168 -32 -53 -40 -61 -66 -61 -17 0
-58 16 -91 35 -33 20 -62 35 -63 33 -16 -20 -25 -58 -25 -111 0 -78 -1 -77
120 -77 67 0 91 -4 101 -16 9 -11 22 -14 47 -9 45 8 122 -21 122 -47 0 -20
-37 -99 -50 -108 -5 -3 -11 -30 -15 -60 -6 -48 -4 -59 15 -83 27 -34 43 -34
70 0 l21 26 -26 27 -25 26 26 25 c14 13 32 36 39 50 12 23 11 31 -13 77 -14
28 -24 54 -21 57 3 3 21 -1 40 -9 19 -7 52 -17 75 -20 58 -10 69 -44 59 -186
-7 -120 -5 -127 63 -227 34 -51 35 -54 18 -72 -15 -16 -17 -27 -9 -57 4 -20
16 -42 26 -48 15 -9 23 -6 45 19 26 29 29 30 73 19 25 -7 56 -17 67 -23 12 -6
47 -14 80 -17 l58 -6 64 -137 c114 -240 226 -383 324 -411 33 -9 56 -9 96 -1
28 6 82 11 120 11 61 0 72 -3 97 -26 15 -15 51 -44 79 -65 54 -39 76 -78 89
-156 l7 -42 -44 -11 c-24 -6 -61 -16 -83 -23 -22 -6 -94 -11 -160 -11 -144 -1
-205 15 -296 77 -107 71 -192 198 -280 415 -43 108 -49 92 -8 -24 40 -115 95
-224 152 -300 42 -57 44 -62 32 -90 l-12 -29 -13 28 c-15 30 -41 37 -33 8 5
-21 -15 -32 -45 -24 -21 5 -32 30 -32 73 0 20 -2 22 -10 10 -6 -8 -7 -27 -4
-42 6 -32 -14 -68 -39 -68 -9 0 -38 19 -63 42 -52 47 -66 42 -55 -19 5 -24 6
-43 3 -43 -3 0 -35 25 -72 55 -126 101 -256 263 -387 483 -36 61 -73 112 -80
112 -32 0 -94 76 -145 176 -44 85 -58 105 -80 109 -68 15 -195 124 -275 234
-25 35 -32 39 -99 49 -162 25 -307 126 -429 296 -26 36 -53 66 -61 66 -8 0
-14 1 -15 3 0 1 -6 40 -13 87 l-13 85 -2 -83 c-1 -61 -4 -83 -13 -80 -7 3 -16
20 -20 39 -3 19 -11 54 -16 79 l-10 45 -1 -67 c-1 -56 -4 -66 -16 -62 -12 5
-15 29 -15 128 0 127 15 255 50 420 11 55 18 101 16 103 -5 5 -50 -182 -72
-296 -8 -42 -18 -129 -21 -194 l-6 -119 -26 33 c-22 28 -26 45 -27 104 -1 38
2 86 7 105 5 19 20 100 33 180 14 80 41 201 61 269 56 196 71 362 40 438 -17
39 -104 147 -113 139 -2 -3 10 -22 28 -42 52 -60 63 -96 68 -232 4 -113 2
-129 -22 -200 -36 -106 -90 -355 -118 -539 -13 -84 -25 -153 -29 -153 -3 0
-14 6 -24 14 -17 12 -18 18 -8 52 7 22 14 62 17 89 l6 50 -19 -53 c-29 -77
-56 -110 -97 -118 -19 -3 -37 -4 -40 -2 -2 3 23 54 57 114 226 398 271 713
139 974 -28 55 -112 174 -132 186 -12 8 -12 8 46 -81 76 -115 126 -284 126
-425 0 -146 -51 -343 -131 -502 -49 -99 -136 -245 -150 -254 -6 -3 -28 2 -49
11 -38 17 -41 17 -82 -2 -73 -34 -96 -36 -36 -3 139 78 217 183 223 302 3 40
14 85 30 122 42 96 48 138 31 261 -25 191 -135 452 -231 550 -41 41 -199 155
-216 155 -5 0 -9 -12 -9 -26 0 -17 -4 -24 -12 -21 -48 17 -58 18 -58 3 0 -24
49 -32 81 -14 27 16 28 15 67 -27 26 -28 43 -40 50 -33 11 11 58 -50 124 -162
45 -78 94 -187 86 -195 -2 -3 -27 26 -54 63 -74 102 -123 152 -149 152 -12 0
-28 6 -34 14 -18 21 -124 65 -175 72 -37 6 -46 4 -46 -9 0 -20 21 -27 82 -27
47 0 54 -4 124 -65 41 -36 81 -65 88 -65 8 0 34 -21 59 -47 39 -39 43 -48 31
-58 -13 -9 -5 -21 46 -78 48 -52 67 -81 81 -128 34 -110 21 -128 -35 -51 -20
26 -57 76 -83 111 -111 149 -179 206 -283 237 -35 10 -54 22 -57 35 -3 12 -14
19 -29 19 -38 0 -28 -24 19 -47 56 -27 129 -87 260 -213 114 -110 134 -139
161 -232 29 -102 19 -109 -30 -18 -25 47 -50 90 -56 95 -13 12 -12 9 37 -102
75 -172 80 -292 13 -396 -43 -67 -110 -114 -268 -190 -81 -38 -161 -84 -199
-115 -63 -51 -65 -55 -228 -364 -315 -598 -639 -1151 -710 -1209 -8 -7 10 22
42 66 61 86 87 129 64 108 -9 -9 -47 -13 -116 -13 -75 0 -103 -3 -104 -12 -1
-7 -5 -2 -9 12 l-8 25 -1 -25 c-2 -40 -26 -66 -76 -80 -25 -7 -48 -11 -50 -8
-3 2 -7 18 -11 34 -4 21 1 40 21 69 l26 40 -26 -28 -25 -28 -150 0 c-123 0
-153 3 -166 15 -8 9 -26 16 -39 16 -13 0 -26 5 -28 10 -3 6 -4 5 -3 -2 1 -7
14 -14 29 -16 31 -4 67 -49 70 -88 2 -19 -8 -32 -39 -56 -41 -30 -42 -30 -98
-17 -31 7 -59 15 -61 19 -2 3 12 41 31 85 19 43 32 80 30 82 -2 2 -8 -9 -15
-24 l-11 -28 -297 2 c-269 3 -297 5 -309 20 -7 10 -14 14 -14 10 0 -5 9 -20
19 -33 l20 -25 -31 -49 c-33 -52 -58 -80 -58 -62 0 5 -14 12 -31 16 -41 8 -91
58 -83 83 4 10 23 33 43 51 34 32 34 33 4 13 -26 -17 -47 -21 -121 -21 -63 0
-92 -4 -95 -12 -4 -8 -6 -7 -6 3 -1 9 -8 23 -18 30 -15 13 -15 12 -3 -8 12
-18 12 -29 -1 -70 -16 -52 -47 -75 -119 -88 -34 -6 -36 -5 -57 38 -19 40 -20
49 -9 86 6 22 20 48 31 56 19 16 19 16 -3 5 -13 -6 -26 -18 -29 -26 -4 -11
-34 -14 -158 -14 -138 0 -154 2 -158 18 -3 9 -5 4 -6 -13 -1 -24 -18 -47 -81
-110 -79 -78 -80 -79 -80 -49 0 30 14 116 26 159 3 13 2 16 -3 8 -7 -9 -73
-13 -248 -15 l-240 -3 88 -53 c48 -29 87 -56 87 -58 0 -3 -15 3 -32 14 -18 10
-61 36 -96 56 -34 21 -60 42 -57 47 4 5 -2 6 -11 2 -13 -5 -15 -3 -9 7 5 8 4
11 -3 6 -12 -7 -167 87 -437 267 -762 508 -1434 1065 -1885 1562 -179 197
-190 217 -30 51 80 -82 190 -185 244 -229 110 -88 336 -242 336 -229 0 4 13
23 28 42 l29 34 31 -22 c45 -32 51 -61 18 -88 l-26 -23 143 -70 c182 -90 294
-133 319 -125 13 4 27 -1 41 -14 20 -19 218 -82 258 -82 12 0 18 12 23 45 4
25 18 58 31 74 l25 28 -41 7 c-129 21 -444 143 -635 247 -162 88 -184 108 -39
36 300 -151 616 -241 1000 -287 148 -18 527 -24 645 -11 180 21 448 70 635
116 376 92 670 214 911 375 87 58 89 59 92 35 2 -14 -4 -53 -13 -87 -15 -59
-28 -88 -70 -151 -17 -26 -17 -27 5 -35 21 -8 18 -12 -41 -65 -35 -32 -82 -65
-104 -74 -22 -10 -77 -37 -123 -60 -60 -31 -96 -43 -126 -43 -24 0 -64 -3 -90
-6 -42 -6 -46 -9 -46 -34 0 -29 -27 -118 -43 -137 -5 -7 -18 -13 -27 -13 -26
0 -80 48 -80 71 0 24 -6 24 -36 0 -16 -12 -49 -21 -97 -25 l-73 -7 10 -50 c6
-31 15 -49 24 -49 8 0 55 10 104 21 86 20 93 20 141 5 43 -14 59 -15 105 -4
48 10 67 23 166 114 110 100 193 154 250 161 17 1 100 18 185 37 86 19 176 37
200 41 34 6 54 18 89 52 l45 45 106 6 c61 3 109 10 113 16 4 6 8 22 8 36 0 17
14 40 39 64 34 33 44 38 73 34 18 -3 43 -2 55 3 13 5 29 6 37 3 19 -7 66 -79
66 -100 0 -10 6 -14 14 -11 49 19 151 28 238 22 78 -5 102 -3 127 9 16 9 46
16 66 16 29 0 37 -5 45 -26 6 -14 15 -22 20 -19 6 4 27 -10 46 -29 42 -42 79
-49 69 -13 -20 67 -84 174 -140 235 -108 116 -208 162 -440 206 -204 39 -312
41 -551 14 l-202 -23 60 67 c54 61 64 68 116 79 77 16 325 5 469 -20 194 -34
458 -102 552 -143 61 -26 63 -15 3 16 -261 132 -704 225 -936 196 -47 -6 -93
-13 -102 -17 -12 -4 -9 6 11 35 19 29 45 50 84 69 55 27 60 28 231 27 159 0
318 -17 386 -40 13 -4 11 -1 -6 12 -14 10 -29 23 -35 30 -16 19 -149 36 -325
43 l-165 6 50 31 c114 72 251 98 505 98 143 0 182 2 145 9 -96 17 -392 12
-480 -7 -44 -10 -88 -22 -97 -27 -26 -14 -23 7 6 36 39 38 139 61 351 78 22 2
-21 5 -95 7 l-135 3 85 9 c47 5 166 8 266 6 122 -2 177 0 168 7 -21 16 -6 54
25 62 40 11 -114 31 -308 39 -145 6 -160 9 -138 21 84 43 277 61 492 43 83 -6
168 -13 190 -15 22 -1 100 -12 174 -24 74 -12 136 -20 138 -18 4 5 -236 89
-332 116 -116 33 -189 43 -269 39 -83 -4 -86 2 -11 27 39 14 83 17 198 17 82
0 162 -4 178 -7 17 -4 29 -2 29 3 0 11 -74 28 -104 24 -10 -1 -44 7 -75 19
-43 16 -80 22 -161 23 -58 0 -118 -3 -135 -7 l-30 -9 24 26 c76 81 307 100
726 61 50 -5 50 -5 -25 20 -113 38 -246 65 -325 66 l-70 1 73 24 c99 32 273
47 419 35 61 -5 116 -12 122 -16 6 -3 11 -3 11 0 0 3 -24 17 -54 30 -55 24
-126 40 -231 51 l-60 7 50 15 c33 10 95 15 185 15 152 1 239 -16 403 -77 226
-85 340 -158 503 -320 108 -109 160 -201 171 -305 5 -48 8 -59 16 -46 15 28 2
183 -22 245 -29 78 -114 184 -203 254 -42 34 -77 65 -77 70 -1 5 25 6 56 3 92
-10 185 -62 274 -154 41 -43 85 -91 97 -108 18 -25 21 -27 21 -10 1 41 -38
102 -103 163 -37 34 -63 62 -58 62 5 0 31 -7 58 -17 65 -21 146 -75 189 -126
41 -48 46 -38 9 17 l-26 38 33 -7 c68 -14 139 -83 139 -134 0 -14 42 -31 76
-31 34 0 71 40 80 85 5 29 2 43 -16 67 -21 29 -21 30 -3 50 39 43 212 183 303
243 172 115 351 189 530 221 47 8 131 12 227 10 l152 -3 77 -53z m-1885 3 c13
-16 12 -17 -3 -4 -10 7 -18 15 -18 17 0 8 8 3 21 -13z m4019 -986 c43 -3 100
-30 100 -48 0 -5 22 -9 49 -9 140 0 218 -36 333 -151 48 -48 111 -106 141
-128 80 -58 141 -134 144 -178 3 -47 39 -92 112 -138 78 -50 111 -106 92 -154
-8 -17 -28 -44 -45 -59 -57 -50 -127 -135 -151 -182 -13 -25 -31 -54 -40 -65
-24 -30 34 85 62 123 13 17 20 32 14 32 -5 0 -13 -5 -16 -10 -16 -26 -80 -44
-214 -61 -179 -23 -241 -23 -287 -4 -35 14 -38 14 -105 -21 -37 -20 -80 -51
-93 -69 -35 -45 -77 -69 -182 -103 -70 -23 -101 -28 -146 -25 -56 5 -57 5 -47
32 6 14 17 33 25 42 12 14 12 18 -6 34 -17 15 -20 31 -20 91 0 84 21 191 51
251 54 112 71 184 77 319 3 87 1 137 -6 150 -9 16 -11 10 -12 -31 0 -47 -45
-293 -55 -304 -3 -2 -5 77 -5 177 0 157 -2 182 -15 182 -23 0 -28 -24 -16 -63
17 -50 -12 -233 -49 -310 l-28 -58 20 -52 c26 -67 21 -189 -10 -259 -17 -39
-20 -59 -15 -118 5 -53 9 -70 21 -70 28 0 7 -7 -41 -14 l-48 -7 7 53 c4 29 20
76 35 103 39 70 63 166 54 224 -17 112 -81 230 -189 346 l-56 60 31 78 c56
139 129 236 235 314 35 26 64 50 64 55 0 4 12 14 28 23 20 11 43 14 92 10 36
-4 85 -7 110 -8z m-1375 -87 c78 -34 112 -86 140 -215 10 -44 26 -104 37 -133
16 -42 17 -58 9 -85 -11 -33 -90 -127 -107 -127 -20 0 -47 68 -40 102 l6 32
-28 -27 c-15 -15 -38 -27 -49 -27 -12 0 -25 -5 -28 -10 -10 -16 -27 0 -22 21
10 37 -9 17 -61 -67 -49 -77 -54 -88 -50 -133 l3 -49 -50 47 c-27 26 -63 56
-79 66 -16 11 -37 33 -47 50 -12 19 -19 24 -19 14 0 -10 16 -40 35 -68 27 -41
31 -53 20 -58 -8 -3 -23 -2 -32 2 -10 5 -25 7 -34 6 -17 -2 -53 65 -43 81 4 6
3 8 -3 5 -12 -7 -93 146 -93 176 0 12 15 -12 33 -53 61 -138 77 -153 22 -20
-49 121 -47 147 16 207 28 26 80 83 116 125 134 161 219 195 348 138z m-8471
-372 c68 -82 70 -85 16 -28 -61 65 -105 120 -97 120 2 0 39 -42 81 -92z m126
-143 c19 -19 32 -35 29 -35 -3 0 -20 16 -39 35 -19 19 -32 35 -29 35 3 0 20
-16 39 -35z m3880 -5 c15 -28 12 -112 -5 -137 -16 -23 -108 -58 -125 -48 -6 3
-17 23 -26 43 -13 31 -13 43 -3 77 17 53 27 65 74 85 43 19 67 13 85 -20z
m-4671 -127 c40 -35 34 -58 -17 -67 -71 -11 -157 -3 -150 14 7 17 94 79 113
79 12 1 36 -11 54 -26z m531 -163 c8 -5 11 -10 5 -10 -5 0 -17 5 -25 10 -8 5
-10 10 -5 10 6 0 17 -5 25 -10z m-89 -81 c36 -25 36 -35 -1 -79 l-30 -35 -19
24 c-19 24 -18 48 2 89 13 27 12 27 48 1z m7680 -35 c13 -14 42 -35 64 -46 22
-11 55 -36 74 -56 l33 -37 -22 38 c-24 41 -22 44 18 23 49 -26 129 -119 214
-251 98 -152 134 -185 338 -314 l35 -22 -37 7 c-66 11 -42 -11 70 -64 l107
-52 -95 0 c-87 0 -103 3 -199 40 -57 23 -106 39 -108 36 -8 -7 74 -46 97 -46
13 0 19 -4 14 -11 -4 -8 -22 -9 -53 -4 -25 4 -129 10 -231 14 -186 7 -260 21
-170 31 40 5 34 7 -52 17 -131 16 -153 28 -215 121 -65 96 -77 128 -71 200 3
31 1 91 -4 132 -11 90 -6 113 26 128 15 7 28 23 31 39 21 100 23 103 69 103
33 0 48 -6 67 -26z m2914 -154 l-144 -110 -131 0 -130 0 -81 -67 c-145 -122
-310 -220 -399 -238 -33 -6 -31 -4 25 33 73 49 145 110 145 123 0 17 -156 -19
-186 -42 -14 -11 -24 -1 -24 23 0 29 110 69 304 113 57 12 17 15 -87 5 -58 -6
-133 -19 -167 -29 l-60 -19 0 23 c0 28 4 29 135 50 178 28 342 78 516 156 95
43 175 64 294 77 148 17 149 22 -10 -98z m175 0 c-23 -33 -43 -46 -108 -71
-63 -25 -437 -267 -497 -321 -28 -25 -63 -68 -77 -95 -100 -182 14 -317 285
-339 l85 -7 67 -66 c83 -83 126 -148 165 -247 38 -98 44 -132 35 -190 -5 -39
-17 -57 -78 -121 -83 -87 -155 -133 -210 -133 -36 0 -39 -3 -93 -87 -67 -104
-138 -174 -212 -210 l-55 -27 -40 45 c-100 110 -151 159 -169 159 -10 0 -18 6
-18 13 0 21 -56 94 -82 108 -19 9 -17 5 9 -22 34 -36 48 -76 35 -97 -7 -9 -18
-9 -58 3 -52 15 -106 62 -122 104 -8 23 -10 22 -81 -39 -95 -82 -168 -130
-195 -130 -12 1 -55 32 -101 75 -44 41 -107 89 -140 106 -112 59 -122 79 -80
164 35 72 30 79 -10 15 -40 -63 -43 -88 -15 -118 26 -28 26 -29 -12 -24 -18 3
-54 20 -80 39 -27 19 -70 43 -96 53 -45 17 -47 20 -53 66 -12 90 -34 128 -100
169 -32 20 -70 50 -83 68 -38 52 -66 151 -66 237 0 98 -21 158 -72 210 l-40
40 40 0 c36 0 142 -18 150 -25 2 -1 -11 -16 -28 -33 -16 -17 -30 -38 -30 -47
0 -13 12 -7 48 22 47 39 114 83 126 83 3 0 4 -11 0 -25 -3 -14 -3 -42 1 -63
l8 -37 13 31 c7 17 19 36 27 43 13 10 15 5 15 -42 0 -29 5 -64 13 -78 l13 -24
6 35 5 35 17 -55 c10 -31 25 -65 34 -75 8 -11 13 -15 10 -9 -11 22 -24 130
-19 157 3 15 12 27 20 27 8 0 62 24 120 52 98 49 112 53 177 53 l71 0 -1 -75
c0 -41 -2 -123 -4 -181 -3 -110 7 -162 37 -173 69 -27 246 231 333 487 l27 81
104 36 c152 52 222 93 324 191 99 93 130 109 170 83 15 -10 54 -19 93 -21 l67
-5 110 75 c61 41 129 80 152 86 42 11 88 42 111 73 7 10 15 18 18 18 3 0 -4
-14 -16 -30z m-2612 -650 c158 -32 255 -90 305 -184 30 -57 31 -188 2 -228
-32 -43 -79 -61 -139 -53 -154 20 -251 130 -346 392 l-38 105 61 -7 c34 -4
104 -15 155 -25z m-4984 -556 c9 -3 16 -12 16 -19 0 -8 12 -28 26 -45 23 -26
25 -36 18 -63 -10 -36 -60 -66 -122 -74 -34 -4 -39 -1 -62 33 -19 28 -25 50
-25 93 l0 56 45 12 c52 13 82 15 104 7z m-934 -33 c5 -11 20 -23 31 -26 20 -7
21 -12 15 -75 -3 -38 -9 -75 -12 -84 -12 -31 -159 -42 -216 -16 -57 26 -48
112 17 178 40 39 46 42 98 42 45 0 58 -4 67 -19z m-630 -97 c0 -2 -9 0 -20 6
-11 6 -20 13 -20 16 0 2 9 0 20 -6 11 -6 20 -13 20 -16z m1813 -32 c10 -9 17
-29 17 -48 0 -28 -8 -39 -46 -69 -26 -19 -55 -35 -64 -35 -10 0 -39 23 -65 51
-45 49 -46 51 -29 70 10 11 37 33 62 49 43 28 45 29 76 13 17 -8 39 -22 49
-31z m787 -5 c0 -2 -12 -14 -27 -28 l-28 -24 24 28 c23 25 31 32 31 24z m-167
-29 c24 -12 21 -53 -7 -115 -21 -45 -30 -53 -65 -64 -40 -12 -43 -11 -71 16
-36 34 -36 39 -9 102 31 73 44 84 93 77 23 -4 49 -11 59 -16z m-1516 -40 c31
-29 29 -35 -12 -30 -25 3 -35 9 -35 21 0 36 15 39 47 9z m383 -10 c0 -7 -3
-22 -6 -34 -5 -19 -10 -20 -57 -13 -36 6 -55 5 -66 -4 -14 -11 -14 -10 -1 7
17 21 86 55 113 56 9 0 17 -6 17 -12z m1210 -22 c0 -2 -8 -10 -17 -17 -16 -13
-17 -12 -4 4 13 16 21 21 21 13z m-988 -29 c14 -11 11 -13 -23 -12 -38 0 -46
5 -32 18 10 11 36 8 55 -6z m502 -34 c11 -24 13 -33 4 -26 -7 6 -43 13 -80 16
-57 5 -67 4 -71 -11 -4 -13 -5 -12 -6 5 -1 25 37 40 125 52 6 0 18 -16 28 -36z
m-449 7 c3 -6 -1 -7 -9 -4 -18 7 -21 14 -7 14 6 0 13 -4 16 -10z"/>
<path d="M2664 9200 c4 -25 17 -180 31 -345 26 -314 50 -486 89 -628 20 -72
22 -93 14 -143 -12 -75 -3 -206 21 -309 13 -52 19 -119 20 -193 1 -136 19
-268 61 -433 46 -182 156 -522 194 -598 18 -36 48 -104 66 -151 19 -47 72
-148 118 -225 95 -159 202 -374 256 -517 24 -60 54 -118 83 -155 69 -88 132
-184 218 -333 224 -387 452 -686 935 -1230 261 -293 301 -333 376 -367 133
-61 230 -41 434 88 316 200 516 307 695 373 55 21 106 45 113 54 27 35 14 76
-71 218 -205 343 -524 808 -826 1199 -309 402 -603 756 -1212 1455 -239 275
-261 303 -316 410 -100 194 -215 362 -656 958 -266 358 -413 565 -539 757 -54
82 -101 152 -104 155 -3 3 -3 -15 0 -40z m647 -1510 c35 0 129 -50 141 -75 10
-21 7 -29 -23 -64 -19 -22 -40 -40 -46 -40 -18 -1 -17 -7 13 -61 24 -45 72
-80 109 -80 7 0 19 -16 25 -36 l12 -36 22 20 c32 29 61 35 100 18 36 -15 36
-16 36 -75 0 -54 -2 -61 -19 -61 -11 0 -23 -5 -27 -11 -3 -6 -22 -9 -40 -7
-19 2 -34 2 -34 1 0 -15 44 -83 68 -106 l30 -29 20 20 c63 63 115 65 171 9 29
-31 31 -38 25 -75 -4 -23 -12 -46 -19 -52 -10 -9 -9 -21 7 -63 11 -29 31 -97
44 -152 37 -150 80 -276 141 -410 89 -198 82 -187 151 -222 73 -37 92 -35 92
13 0 34 -1 34 -45 34 -41 0 -45 2 -45 25 0 41 27 96 68 136 37 38 38 38 77 25
50 -17 78 -51 65 -76 -5 -10 -30 -36 -56 -58 l-46 -41 22 -23 c12 -13 105
-129 205 -258 173 -222 278 -342 318 -365 12 -7 21 -36 32 -99 9 -49 18 -93
21 -98 7 -11 46 17 111 81 29 28 56 51 60 51 12 0 6 -118 -7 -150 -25 -60
-150 -101 -150 -50 0 25 -68 33 -80 9 -8 -14 -20 -16 -77 -12 -80 7 -123 25
-123 54 0 11 -4 17 -10 14 -6 -3 -10 -15 -10 -26 0 -25 160 -152 220 -175 25
-9 97 -41 160 -71 122 -57 153 -62 158 -25 2 13 20 34 43 49 38 25 40 25 53 7
12 -16 11 -22 -6 -47 -11 -15 -28 -33 -38 -39 -18 -12 -21 -8 90 -92 11 -8 10
-4 -3 16 -27 43 -21 65 34 124 55 58 70 66 62 34 -5 -17 0 -20 26 -20 l31 0 0
-64 c0 -61 -1 -65 -35 -90 -25 -19 -41 -25 -60 -20 -35 9 -31 1 14 -30 22 -15
46 -42 55 -60 13 -28 13 -39 1 -87 -21 -83 -22 -104 -5 -104 8 -1 26 7 39 17
32 24 48 10 57 -50 3 -26 13 -57 20 -69 12 -18 12 -27 2 -42 -10 -16 -10 -45
0 -138 7 -65 15 -130 18 -145 8 -34 -11 -37 -48 -9 l-24 20 4 -28 c3 -23 -3
-34 -36 -59 -65 -52 -116 -40 -143 35 -9 27 -7 37 16 72 14 23 40 51 58 61
l32 20 -42 0 c-41 0 -42 -1 -58 -50 -19 -57 -63 -100 -129 -125 -42 -16 -48
-16 -70 -2 -13 9 -32 38 -42 64 -9 26 -23 55 -31 64 -11 13 -8 29 18 105 17
49 31 110 31 136 0 34 5 48 17 52 33 11 -75 -5 -112 -16 -22 -7 -52 -24 -69
-40 -17 -15 -35 -28 -41 -28 -6 0 -45 35 -87 78 -43 46 -94 88 -121 101 -26
12 -54 29 -62 39 -31 34 -50 150 -56 342 l-6 185 -25 3 c-15 2 -56 -15 -104
-43 -44 -25 -87 -43 -96 -40 -9 3 -33 34 -54 70 -21 36 -42 68 -47 71 -13 7
-11 71 2 79 6 4 -32 36 -85 71 -102 68 -190 161 -288 304 -28 41 -70 95 -93
120 -56 61 -72 87 -90 146 -20 67 -19 110 6 180 40 116 15 199 -97 314 -78 81
-105 160 -67 202 23 26 40 23 129 -22 98 -50 105 -39 38 62 -106 159 -210 268
-256 268 -27 0 -55 46 -71 117 -8 38 -30 147 -48 243 -28 149 -36 178 -56 193
-28 22 -53 68 -53 97 0 12 11 31 25 43 l24 22 -19 80 c-29 116 -23 124 13 18
23 -68 36 -93 48 -93z m797 -779 c63 -32 73 -50 65 -112 -10 -65 -25 -71 -93
-39 -43 20 -48 26 -53 64 -4 30 -1 49 14 73 12 18 23 33 25 33 3 0 21 -9 42
-19z m100 -331 c48 -35 55 -71 22 -112 -17 -23 -24 -24 -66 -18 -53 8 -74 29
-74 74 0 30 42 86 65 86 7 0 31 -14 53 -30z m171 -14 c6 -7 25 -16 41 -19 40
-9 51 -33 38 -88 -19 -76 -38 -85 -108 -49 -67 34 -71 69 -18 140 25 34 31 36
47 16z m220 -357 c22 -63 15 -94 -28 -123 -28 -20 -49 -26 -73 -24 -29 3 -33
7 -36 36 -3 29 4 41 51 88 30 30 59 54 65 54 5 0 15 -14 21 -31z m148 -219
c91 -44 99 -59 68 -120 -13 -24 -21 -29 -67 -32 -45 -3 -59 1 -95 25 -23 15
-51 39 -61 52 -17 22 -18 29 -7 61 23 67 48 69 162 14z m949 -1052 c57 -54
114 -134 114 -161 0 -11 -14 -17 -56 -23 -47 -5 -64 -3 -106 17 -52 24 -103
74 -119 117 -8 20 -5 32 15 63 21 32 30 37 62 37 31 0 46 -8 90 -50z m150
-293 c33 -44 4 -105 -48 -105 -40 0 -68 -17 -68 -41 0 -11 -5 -29 -10 -40 -10
-18 -12 -18 -38 -2 -36 23 -42 32 -42 71 0 46 23 95 56 121 24 19 38 22 83 19
37 -4 58 -11 67 -23z m-823 -267 c20 -27 20 -28 2 -68 -17 -38 -85 -100 -110
-100 -7 0 -17 12 -24 26 -9 21 -8 33 7 67 25 55 71 109 90 105 8 -2 24 -15 35
-30z m762 2 c16 -32 20 -80 6 -80 -5 0 -22 -3 -39 -6 -31 -6 -31 -6 -23 22 15
49 33 94 37 94 2 0 10 -13 19 -30z m228 9 c12 -7 23 -13 25 -14 2 -2 -6 -21
-17 -44 -18 -35 -24 -39 -44 -32 -18 7 -21 15 -19 47 2 21 9 42 15 46 15 10
15 10 40 -3z m-80 -120 c20 -37 21 -35 -19 -43 -28 -6 -34 -3 -53 27 -11 19
-21 37 -21 41 0 3 17 6 38 6 31 0 40 -5 55 -31z m-168 -163 c38 -14 40 -17 38
-53 -2 -28 -12 -47 -37 -72 -35 -34 -35 -34 -76 -21 -65 21 -75 32 -59 61 15
27 80 99 89 99 3 0 23 -7 45 -14z m-654 -36 c32 -17 23 -46 -21 -69 -51 -26
-80 -14 -80 36 0 29 3 32 38 36 20 2 38 4 40 5 2 1 12 -3 23 -8z m859 -20 c0
-16 -63 -100 -75 -100 -6 0 -19 6 -28 13 -16 11 -16 14 3 42 23 35 100 70 100
45z m-548 -141 c7 -32 -15 -109 -31 -109 -16 0 -51 33 -51 47 0 25 50 105 63
100 6 -2 15 -19 19 -38z"/>
<path d="M1491 8506 c10 -9 69 -36 69 -32 0 6 -55 36 -66 36 -4 0 -5 -2 -3 -4z"/>
<path d="M1755 8300 c10 -11 20 -20 23 -20 3 0 -3 9 -13 20 -10 11 -20 20 -23
20 -3 0 3 -9 13 -20z"/>
<path d="M2510 7776 c0 -2 8 -10 18 -17 15 -13 16 -12 3 4 -13 16 -21 21 -21
13z"/>
<path d="M2601 7484 c0 -11 3 -14 6 -6 3 7 2 16 -1 19 -3 4 -6 -2 -5 -13z"/>
<path d="M3482 5060 c0 -14 2 -19 5 -12 2 6 2 18 0 25 -3 6 -5 1 -5 -13z"/>
<path d="M3586 4895 c-11 -8 -15 -15 -9 -15 6 0 16 7 23 15 16 19 11 19 -14 0z"/>
<path d="M3517 4853 c-4 -3 -7 -20 -7 -38 0 -27 6 -34 48 -55 26 -14 50 -26
53 -28 3 -1 5 13 5 32 -1 35 -16 40 -16 5 0 -19 -1 -19 -41 2 -38 19 -41 23
-37 55 4 37 4 37 -5 27z"/>
<path d="M7187 8931 c-4 -15 3 -26 21 -39 48 -33 48 -33 46 11 -2 39 -4 42
-32 45 -23 2 -31 -2 -35 -17z"/>
<path d="M10813 7079 c-63 -187 -83 -277 -83 -368 l0 -68 58 19 c31 10 84 21
117 25 80 8 123 46 79 71 -15 9 -15 12 -1 40 17 36 14 42 -25 42 -24 0 -28 4
-28 26 0 26 1 27 50 21 48 -6 50 -5 50 19 0 26 -43 74 -66 74 -23 0 -36 38
-28 87 6 38 4 45 -8 41 -29 -12 -57 24 -60 77 -3 49 -4 47 -55 -106z"/>
<path d="M11399 5123 c-13 -16 -12 -17 4 -4 9 7 17 15 17 17 0 8 -8 3 -21 -13z"/>
<path d="M10888 5093 c7 -3 16 -2 19 1 4 3 -2 6 -13 5 -11 0 -14 -3 -6 -6z"/>
<path d="M10838 5083 c6 -2 18 -2 25 0 6 3 1 5 -13 5 -14 0 -19 -2 -12 -5z"/>
<path d="M9960 3768 c19 -5 37 -9 40 -8 3 2 14 6 25 11 13 5 0 8 -40 7 -57 0
-58 0 -25 -10z"/>
<path d="M6670 3408 c0 -38 37 -90 62 -86 12 2 23 -2 25 -8 5 -14 -86 -114
-103 -114 -8 0 -14 -4 -14 -10 0 -5 8 -10 18 -10 10 0 40 -14 68 -32 27 -18
51 -33 54 -33 3 -1 29 -25 57 -53 56 -55 79 -65 70 -32 -6 25 0 25 63 1 l50
-19 -34 40 c-44 51 -97 78 -140 71 -39 -6 -52 8 -35 38 9 18 7 27 -11 51 -17
23 -19 32 -10 44 21 25 43 15 151 -69 59 -45 143 -110 187 -144 45 -35 85 -63
91 -63 17 0 23 -19 42 -143 30 -199 31 -194 -60 -356 -23 -41 -40 -76 -38 -78
2 -2 31 14 63 36 93 62 107 95 109 261 2 116 -1 141 -19 185 -35 85 -137 222
-155 210 -8 -5 -176 128 -241 191 -33 32 -47 40 -57 32 -7 -6 -21 -7 -30 -3
-10 5 -22 7 -26 6 -4 -1 -17 19 -28 44 -21 48 -43 65 -83 65 -20 0 -26 -5 -26
-22z"/>
<path d="M9218 3367 c-162 -101 -330 -274 -400 -410 -58 -114 -104 -301 -134
-548 -17 -144 -13 -189 5 -57 44 313 84 471 142 563 86 136 321 392 421 460
73 49 48 43 -34 -8z"/>
<path d="M9504 3370 c-31 -7 -104 -47 -104 -56 0 -3 20 7 43 21 24 14 53 25
65 25 11 0 24 5 27 10 3 6 5 10 3 9 -2 -1 -17 -4 -34 -9z"/>
<path d="M6189 3286 l-15 -33 105 -26 c127 -31 283 -106 359 -171 30 -25 57
-46 60 -46 4 0 -23 30 -58 66 -71 71 -169 141 -246 175 -39 17 -185 70 -188
69 -1 -1 -8 -16 -17 -34z"/>
<path d="M9400 3286 c0 -3 14 -12 30 -21 17 -9 30 -13 30 -11 0 3 -13 12 -30
21 -16 9 -30 13 -30 11z"/>
<path d="M9879 3213 l-24 -28 25 22 c14 11 34 23 45 26 19 5 19 5 -1 6 -11 0
-31 -11 -45 -26z"/>
<path d="M10020 3236 c0 -2 7 -6 15 -10 8 -3 15 -1 15 4 0 6 -7 10 -15 10 -8
0 -15 -2 -15 -4z"/>
<path d="M9373 3193 c15 -2 37 -2 50 0 12 2 0 4 -28 4 -27 0 -38 -2 -22 -4z"/>
<path d="M9406 3128 c-15 -23 -20 -35 -11 -28 15 13 50 70 42 70 -2 0 -16 -19
-31 -42z"/>
<path d="M9851 3149 c0 -15 7 -33 17 -40 15 -12 16 -12 5 1 -6 8 -13 26 -16
40 l-4 25 -2 -26z"/>
<path d="M9668 3114 c-38 -20 -36 -28 2 -9 17 9 30 18 30 20 0 7 -1 6 -32 -11z"/>
<path d="M9735 3110 c11 -14 21 -27 22 -29 1 -2 1 6 0 17 0 12 -3 19 -6 17 -2
-3 -11 1 -20 7 -10 8 -8 3 4 -12z"/>
<path d="M10050 3120 c-9 -6 -10 -10 -3 -10 6 0 15 5 18 10 8 12 4 12 -15 0z"/>
<path d="M9990 3094 c-24 -9 -29 -13 -14 -13 11 -1 29 6 40 14 22 17 20 17
-26 -1z"/>
<path d="M9610 3075 c-7 -9 -11 -17 -9 -20 3 -2 10 5 17 15 14 24 10 26 -8 5z"/>
<path d="M9928 3073 c7 -3 16 -2 19 1 4 3 -2 6 -13 5 -11 0 -14 -3 -6 -6z"/>
<path d="M9328 3063 c6 -2 18 -2 25 0 6 3 1 5 -13 5 -14 0 -19 -2 -12 -5z"/>
<path d="M9752 3050 c0 -14 2 -19 5 -12 2 6 2 18 0 25 -3 6 -5 1 -5 -13z"/>
<path d="M9440 3056 c0 -2 18 -6 39 -8 22 -2 37 0 35 4 -5 8 -74 11 -74 4z"/>
<path d="M9379 3023 c-13 -16 -12 -17 4 -4 9 7 17 15 17 17 0 8 -8 3 -21 -13z"/>
<path d="M8935 3020 c-3 -6 1 -7 9 -4 18 7 21 14 7 14 -6 0 -13 -4 -16 -10z"/>
<path d="M9520 3025 c0 -5 5 -17 10 -25 5 -8 10 -10 10 -5 0 6 -5 17 -10 25
-5 8 -10 11 -10 5z"/>
<path d="M9600 3024 c0 -19 38 -46 57 -41 15 4 14 5 -4 6 -12 0 -29 11 -37 23
-9 12 -16 18 -16 12z"/>
<path d="M9800 3019 c13 -6 32 -15 40 -22 9 -7 5 -2 -8 11 -13 12 -31 22 -40
21 -11 0 -9 -4 8 -10z"/>
<path d="M9728 3013 c10 -4 8 -12 -10 -32 l-23 -26 27 24 c27 23 29 42 5 40
-8 0 -8 -2 1 -6z"/>
<path d="M9690 3000 c-9 -6 -10 -10 -3 -10 6 0 15 5 18 10 8 12 4 12 -15 0z"/>
<path d="M7117 2929 c23 -24 56 -77 74 -117 32 -73 32 -73 14 -110 -27 -58
-76 -194 -71 -199 18 -18 55 56 88 177 18 64 19 79 8 110 -20 56 -95 152 -135
172 -11 6 -1 -9 22 -33z"/>
<path d="M8965 2959 c-4 -6 -5 -12 -2 -15 2 -3 7 2 10 11 7 17 1 20 -8 4z"/>
<path d="M9483 2936 c-13 -6 -23 -14 -23 -17 0 -13 39 3 44 17 3 8 4 13 3 13
-1 -1 -12 -6 -24 -13z"/>
<path d="M8854 2915 c-3 -8 -4 -20 -2 -27 3 -7 7 -1 10 15 6 29 1 36 -8 12z"/>
<path d="M8950 2904 c0 -16 5 -36 10 -44 6 -10 7 -2 3 25 -7 49 -13 58 -13 19z"/>
<path d="M9682 2905 c0 -16 2 -22 5 -12 2 9 2 23 0 30 -3 6 -5 -1 -5 -18z"/>
<path d="M5942 2915 c10 -10 158 -42 158 -35 0 4 -32 15 -71 24 -76 17 -96 19
-87 11z"/>
<path d="M9587 2889 c4 -13 8 -18 11 -10 2 7 -1 18 -6 23 -8 8 -9 4 -5 -13z"/>
<path d="M9851 2898 c-2 -25 15 -30 30 -10 13 15 12 16 -3 4 -14 -11 -17 -10
-21 5 -4 16 -5 16 -6 1z"/>
<path d="M9908 2898 c5 -5 16 -8 23 -6 8 3 3 7 -10 11 -17 4 -21 3 -13 -5z"/>
<path d="M8911 2884 c0 -11 3 -14 6 -6 3 7 2 16 -1 19 -3 4 -6 -2 -5 -13z"/>
<path d="M9123 2845 c0 -33 2 -45 4 -27 2 18 2 45 0 60 -2 15 -4 0 -4 -33z"/>
<path d="M6827 2878 c4 -7 24 -38 44 -68 64 -98 79 -135 79 -198 0 -51 4 -62
28 -85 24 -24 33 -26 55 -18 24 10 43 43 33 59 -2 4 -7 27 -9 49 -3 23 -12 52
-21 65 -9 12 -16 29 -16 38 0 16 -124 135 -163 157 -29 16 -40 16 -30 1z"/>
<path d="M9054 2868 l-19 -23 23 19 c21 18 27 26 19 26 -2 0 -12 -10 -23 -22z"/>
<path d="M9810 2850 c-9 -6 -10 -10 -3 -10 6 0 15 5 18 10 8 12 4 12 -15 0z"/>
<path d="M8820 2826 c7 -7 13 -7 20 0 6 6 3 10 -10 10 -13 0 -16 -4 -10 -10z"/>
<path d="M8988 2833 c7 -3 16 -2 19 1 4 3 -2 6 -13 5 -11 0 -14 -3 -6 -6z"/>
<path d="M9408 2833 c7 -3 16 -2 19 1 4 3 -2 6 -13 5 -11 0 -14 -3 -6 -6z"/>
<path d="M9478 2833 c7 -3 16 -2 19 1 4 3 -2 6 -13 5 -11 0 -14 -3 -6 -6z"/>
<path d="M9364 2814 c-18 -14 -18 -15 4 -4 12 6 22 13 22 15 0 8 -5 6 -26 -11z"/>
<path d="M9518 2823 c7 -3 16 -2 19 1 4 3 -2 6 -13 5 -11 0 -14 -3 -6 -6z"/>
<path d="M8861 2804 c0 -11 3 -14 6 -6 3 7 2 16 -1 19 -3 4 -6 -2 -5 -13z"/>
<path d="M8794 2776 c-3 -21 -4 -39 -1 -42 2 -3 8 11 11 32 4 20 5 38 2 41 -2
3 -8 -11 -12 -31z"/>
<path d="M9122 2761 c8 -14 25 -31 39 -39 l24 -14 -22 18 c-12 11 -30 28 -39
39 -15 19 -16 19 -2 -4z"/>
<path d="M8871 2754 c0 -11 3 -14 6 -6 3 7 2 16 -1 19 -3 4 -6 -2 -5 -13z"/>
<path d="M8856 2713 c-6 -14 -5 -15 5 -6 7 7 10 15 7 18 -3 3 -9 -2 -12 -12z"/>
<path d="M8796 2707 c3 -10 9 -15 12 -12 3 3 0 11 -7 18 -10 9 -11 8 -5 -6z"/>
<path d="M8773 2641 c-13 -11 -23 -23 -23 -27 0 -4 11 3 25 16 25 23 25 23 47
4 l23 -19 -19 23 c-23 26 -25 27 -53 3z"/>
<path d="M8742 2580 c0 -14 2 -19 5 -12 2 6 2 18 0 25 -3 6 -5 1 -5 -13z"/>
<path d="M8760 2566 c0 -3 9 -10 20 -16 11 -6 20 -8 20 -6 0 3 -9 10 -20 16
-11 6 -20 8 -20 6z"/>
<path d="M10990 2520 c-12 -17 -30 -30 -42 -30 -12 0 -41 -16 -64 -36 -40 -32
-44 -39 -44 -81 0 -78 -22 -227 -37 -250 -8 -12 -13 -27 -12 -35 4 -30 -4 -42
-58 -101 l-58 -61 50 28 c28 16 65 43 84 60 46 42 101 162 101 219 0 25 6 56
14 71 l13 26 18 -40 c27 -60 38 -50 30 29 -10 102 3 133 73 172 31 18 59 34
62 36 11 9 -28 23 -67 23 -35 0 -45 -5 -63 -30z"/>
<path d="M9045 2519 c-27 -11 -69 -26 -93 -35 -23 -9 -67 -38 -97 -66 l-55
-50 0 29 c0 19 -9 37 -22 49 -23 19 -23 19 -7 -1 19 -23 31 -89 19 -101 -4 -5
-11 -29 -15 -54 l-8 -45 41 51 c61 77 104 112 289 231 26 17 6 14 -52 -8z"/>
<path d="M10799 2523 c-13 -16 -12 -17 4 -4 16 13 21 21 13 21 -2 0 -10 -8
-17 -17z"/>
<path d="M8732 2505 c0 -16 2 -22 5 -12 2 9 2 23 0 30 -3 6 -5 -1 -5 -18z"/>
<path d="M10738 2436 c-65 -61 -88 -90 -87 -107 l1 -24 7 25 c9 32 28 35 94
16 41 -12 55 -13 64 -3 17 18 29 147 13 147 -7 0 -10 7 -6 15 3 8 4 15 3 15
-1 0 -41 -38 -89 -84z"/>
<path d="M10754 2489 c-10 -12 -43 -37 -71 -56 -29 -19 -53 -37 -53 -40 0 -5
9 1 65 38 38 26 94 79 83 79 -3 0 -13 -9 -24 -21z"/>
<path d="M11236 2465 c-9 -26 -7 -32 5 -12 6 10 9 21 6 23 -2 3 -7 -2 -11 -11z"/>
<path d="M11201 2454 c0 -11 3 -14 6 -6 3 7 2 16 -1 19 -3 4 -6 -2 -5 -13z"/>
<path d="M8725 2449 c-4 -6 -5 -12 -2 -15 2 -3 7 2 10 11 7 17 1 20 -8 4z"/>
<path d="M11101 2414 c-40 -51 -36 -138 9 -179 21 -19 28 -7 9 12 -9 9 -6 19
10 39 25 32 27 79 5 101 -8 9 -13 24 -11 34 7 25 2 24 -22 -7z"/>
<path d="M8348 2310 c-13 -213 17 -575 49 -587 21 -8 23 0 13 38 -23 87 -43
272 -49 464 l-6 210 -7 -125z"/>
<path d="M8704 2325 c-3 -8 -4 -20 -2 -27 3 -7 7 -1 10 15 6 29 1 36 -8 12z"/>
<path d="M11356 2211 c-15 -29 -16 -40 -7 -72 6 -21 16 -41 22 -45 16 -9 30
17 23 41 -3 11 -9 40 -13 65 l-7 45 -18 -34z"/>
<path d="M4035 2120 c-303 -100 -753 -190 -952 -190 l-52 0 -3 -41 c-3 -40 -5
-43 -45 -54 -37 -11 -43 -11 -48 4 -3 9 -1 31 4 49 l10 32 -97 0 c-155 0 -468
32 -545 56 -15 5 -17 -1 -16 -43 1 -26 -4 -61 -10 -77 -6 -16 -10 -30 -9 -31
4 -4 245 -35 269 -35 13 0 19 7 19 23 0 34 72 101 99 92 27 -8 37 -49 20 -83
-7 -15 -15 -31 -18 -36 -5 -11 308 -1 428 14 68 9 90 16 120 40 74 59 130 67
162 22 14 -18 17 -18 139 11 69 16 137 38 151 48 14 10 35 16 45 13 11 -3 81
15 154 39 264 88 361 132 368 170 6 28 -61 21 -193 -23z"/>
<path d="M6280 2150 c0 -15 30 -73 35 -68 7 7 -18 78 -27 78 -4 0 -8 -5 -8
-10z"/>
<path d="M10192 2000 c0 -14 2 -19 5 -12 2 6 2 18 0 25 -3 6 -5 1 -5 -13z"/>
<path d="M9933 1985 c-3 -9 -3 -18 -1 -21 3 -3 8 4 11 16 6 23 -1 27 -10 5z"/>
<path d="M10092 1950 c0 -19 2 -27 5 -17 2 9 2 25 0 35 -3 9 -5 1 -5 -18z"/>
<path d="M11243 1945 c0 -22 2 -30 4 -17 2 12 2 30 0 40 -3 9 -5 -1 -4 -23z"/>
<path d="M9841 1818 c41 -70 132 -181 179 -218 51 -40 136 -78 192 -86 l45 -6
1 48 c1 27 2 58 3 69 0 11 -2 30 -6 43 -6 17 -3 22 9 22 20 0 36 -39 36 -87 0
-58 20 -110 47 -122 37 -17 50 -14 75 20 34 46 101 115 116 120 10 3 11 11 4
29 -9 22 -11 23 -17 8 -10 -25 -20 -22 -33 7 -7 14 -20 28 -29 32 -10 3 -28
15 -41 26 l-22 21 6 -46 c5 -38 3 -46 -12 -52 -23 -9 -50 18 -66 69 -12 36
-16 40 -51 43 -30 3 -40 9 -49 30 -29 68 -75 89 -118 54 -21 -17 -22 -19 -7
-62 l15 -45 -39 -3 c-53 -4 -151 24 -147 43 2 11 -101 95 -117 95 -3 0 9 -24
26 -52z"/>
<path d="M3500 1840 c-14 -4 -43 -9 -65 -9 l-40 -2 25 -20 c58 -48 122 -72
208 -77 l82 -5 0 35 c0 37 13 59 45 76 19 11 19 11 -4 12 -13 0 -46 -16 -73
-36 l-49 -36 -24 22 c-19 18 -22 26 -14 37 9 10 4 13 -27 12 -22 -1 -50 -5
-64 -9z"/>
<path d="M10465 1830 c10 -11 20 -20 23 -20 3 0 -3 9 -13 20 -10 11 -20 20
-23 20 -3 0 3 -9 13 -20z"/>
<path d="M11270 1786 c0 -2 8 -10 18 -17 15 -13 16 -12 3 4 -13 16 -21 21 -21
13z"/>
<path d="M10495 1740 c10 -11 20 -20 23 -20 3 0 -3 9 -13 20 -10 11 -20 20
-23 20 -3 0 3 -9 13 -20z"/>
<path d="M10654 1698 l-29 -33 33 29 c30 28 37 36 29 36 -2 0 -16 -15 -33 -32z"/>
<path d="M11053 1663 c9 -2 23 -2 30 0 6 3 -1 5 -18 5 -16 0 -22 -2 -12 -5z"/>
<path d="M10900 1606 c0 -2 8 -10 18 -17 15 -13 16 -12 3 4 -13 16 -21 21 -21
13z"/>
<path d="M10819 1583 c-13 -16 -12 -17 4 -4 9 7 17 15 17 17 0 8 -8 3 -21 -13z"/>
<path d="M8586 1545 c-6 -17 96 -89 129 -90 12 -1 26 -4 31 -8 7 -4 9 5 6 22
-3 21 -8 27 -22 24 -9 -3 -42 12 -73 31 -64 41 -63 41 -71 21z"/>
<path d="M11290 1430 c-9 -6 -10 -10 -3 -10 6 0 15 5 18 10 8 12 4 12 -15 0z"/>
<path d="M9116 1395 c-3 -9 -6 -26 -6 -37 0 -17 -2 -18 -15 -8 -30 25 -29 -1
2 -63 20 -39 32 -54 32 -41 1 11 11 29 22 40 l22 19 -5 -41 -6 -41 22 21 c11
12 32 28 46 37 l25 17 -21 28 c-12 16 -30 31 -40 32 -10 2 -31 15 -45 29 -23
21 -27 22 -33 8z"/>
<path d="M11091 1324 c0 -11 3 -14 6 -6 3 7 2 16 -1 19 -3 4 -6 -2 -5 -13z"/>
<path d="M10720 1310 c-9 -6 -10 -10 -3 -10 6 0 15 5 18 10 8 12 4 12 -15 0z"/>
<path d="M8907 1265 c-11 -7 -26 -11 -34 -8 -34 13 -6 -32 40 -64 37 -26 46
-29 38 -14 -6 11 -11 38 -11 60 0 44 -5 48 -33 26z"/>
<path d="M11023 1225 c0 -27 2 -38 4 -22 2 15 2 37 0 50 -2 12 -4 0 -4 -28z"/>
<path d="M9286 1184 c-8 -21 -8 -88 0 -109 5 -12 15 -1 40 42 23 42 30 61 22
70 -15 18 -55 16 -62 -3z"/>
<path d="M9080 1160 c-13 -19 -22 -48 -23 -75 -2 -41 2 -48 44 -89 39 -37 47
-52 53 -94 6 -46 12 -55 94 -134 48 -46 109 -109 135 -138 39 -44 50 -52 57
-40 19 30 11 81 -19 119 -36 46 -51 75 -51 98 0 27 -101 123 -129 123 -24 0
-24 0 -19 100 3 55 4 100 2 100 -1 0 -12 -15 -23 -33 -13 -21 -18 -42 -14 -58
3 -13 2 -21 -2 -16 -5 4 -12 35 -16 69 -5 47 -13 67 -29 80 -30 24 -35 23 -60
-12z"/>
<path d="M11016 1145 c-3 -9 -5 -31 -5 -48 1 -27 3 -24 9 13 8 48 6 61 -4 35z"/>
<path d="M9470 1116 c0 -32 20 -86 32 -86 5 0 18 5 29 11 24 12 18 41 -14 77
-27 29 -47 28 -47 -2z"/>
<path d="M9382 1094 c-14 -10 -22 -25 -22 -45 0 -27 3 -30 23 -23 71 22 76 28
57 65 -13 23 -28 24 -58 3z"/>
<path d="M9400 963 l-32 -26 27 -15 c23 -12 29 -12 36 0 9 13 13 68 5 68 -3 0
-19 -12 -36 -27z"/>
<path d="M9650 977 c0 -17 86 -177 136 -254 59 -89 131 -160 209 -204 57 -33
74 -37 54 -11 -24 29 -36 56 -32 70 6 16 48 15 62 -2 8 -10 21 -11 49 -5 20 5
50 11 65 14 19 4 27 11 25 22 -4 22 -53 34 -105 27 -38 -6 -45 -3 -75 27 -24
24 -46 35 -83 41 -82 13 -121 48 -277 248 -15 19 -28 32 -28 27z"/>
<path d="M5942 860 c0 -14 2 -19 5 -12 2 6 2 18 0 25 -3 6 -5 1 -5 -13z"/>
<path d="M4768 853 c6 -2 18 -2 25 0 6 3 1 5 -13 5 -14 0 -19 -2 -12 -5z"/>
<path d="M4708 843 c6 -2 18 -2 25 0 6 3 1 5 -13 5 -14 0 -19 -2 -12 -5z"/>
<path d="M5778 843 c7 -3 16 -2 19 1 4 3 -2 6 -13 5 -11 0 -14 -3 -6 -6z"/>
<path d="M4910 836 c0 -2 8 -10 18 -17 15 -13 16 -12 3 4 -13 16 -21 21 -21
13z"/>
<path d="M5559 823 c-13 -16 -12 -17 4 -4 9 7 17 15 17 17 0 8 -8 3 -21 -13z"/>
<path d="M5816 827 c3 -10 9 -15 12 -12 3 3 0 11 -7 18 -10 9 -11 8 -5 -6z"/>
<path d="M5086 809 c-22 -17 -36 -20 -73 -16 -28 3 -40 1 -32 -4 27 -17 83 -9
114 16 37 30 28 33 -9 4z"/>
<path d="M6075 811 c-6 -5 -26 -11 -45 -14 l-35 -4 36 -1 c22 -1 42 4 49 13
14 16 10 21 -5 6z"/>
<path d="M5633 799 c-7 -7 -29 -15 -50 -19 -37 -7 -37 -8 -7 -9 18 -1 42 7 55
19 13 10 22 19 19 20 -4 0 -11 -5 -17 -11z"/>
<path d="M5948 803 c6 -2 18 -2 25 0 6 3 1 5 -13 5 -14 0 -19 -2 -12 -5z"/>
<path d="M9529 682 c-28 -23 -22 -41 26 -78 29 -22 38 -25 45 -14 7 12 4 65
-6 98 -5 18 -38 15 -65 -6z"/>
<path d="M12000 2861 c0 -10 17 -52 39 -93 l38 -75 -24 -79 c-45 -148 -54
-186 -51 -207 5 -37 72 44 109 132 34 78 41 142 25 221 -9 44 -21 60 -71 93
-47 32 -65 34 -65 8z"/>
<path d="M10235 3026 c-16 -7 -41 -28 -54 -46 -24 -33 -19 -33 31 2 14 10 43
18 65 19 21 0 47 4 58 9 19 7 18 9 -8 19 -36 14 -55 13 -92 -3z"/>
<path d="M10268 2983 c12 -2 32 -2 45 0 12 2 2 4 -23 4 -25 0 -35 -2 -22 -4z"/>
<path d="M10360 2895 c-2 -41 -5 -49 -7 -27 -4 31 -6 33 -21 19 -9 -8 -26 -17
-36 -18 -27 -6 -44 -35 -28 -51 9 -9 15 -9 24 0 17 17 58 15 58 -3 0 -9 -9
-15 -24 -15 -27 0 -99 -51 -129 -91 -28 -39 -33 -108 -11 -150 10 -19 18 -51
19 -72 1 -44 25 -77 25 -34 0 14 31 91 69 169 75 155 85 194 72 278 l-9 55 -2
-60z m-26 -138 c-4 -13 -9 -14 -19 -4 -11 10 -10 13 4 18 20 8 23 6 15 -14z
m-44 -102 c0 -8 -4 -15 -9 -15 -13 0 -22 16 -14 24 11 11 23 6 23 -9z m-56
-82 c11 -6 12 -13 5 -23 -8 -13 -12 -11 -29 9 -11 13 -20 37 -20 55 l1 31 13
-31 c8 -18 21 -36 30 -41z"/>
<path d="M10109 2903 c-13 -16 -12 -17 4 -4 16 13 21 21 13 21 -2 0 -10 -8
-17 -17z"/>
<path d="M10422 2855 c0 -16 2 -22 5 -12 2 9 2 23 0 30 -3 6 -5 -1 -5 -18z"/>
<path d="M10132 2830 c0 -19 2 -27 5 -17 2 9 2 25 0 35 -3 9 -5 1 -5 -18z"/>
<path d="M10472 2820 c0 -14 2 -19 5 -12 2 6 2 18 0 25 -3 6 -5 1 -5 -13z"/>
<path d="M10411 2804 c0 -11 3 -14 6 -6 3 7 2 16 -1 19 -3 4 -6 -2 -5 -13z"/>
<path d="M9982 2720 c0 -19 2 -27 5 -17 2 9 2 25 0 35 -3 9 -5 1 -5 -18z"/>
<path d="M10021 2734 c0 -11 3 -14 6 -6 3 7 2 16 -1 19 -3 4 -6 -2 -5 -13z"/>
<path d="M10441 2734 c0 -11 3 -14 6 -6 3 7 2 16 -1 19 -3 4 -6 -2 -5 -13z"/>
<path d="M10038 2717 c-3 -19 -2 -25 4 -19 6 6 8 18 6 28 -3 14 -5 12 -10 -9z"/>
<path d="M10482 2715 c0 -16 2 -22 5 -12 2 9 2 23 0 30 -3 6 -5 -1 -5 -18z"/>
<path d="M10532 2685 c0 -16 2 -22 5 -12 2 9 2 23 0 30 -3 6 -5 -1 -5 -18z"/>
<path d="M9972 2655 c0 -16 2 -22 5 -12 2 9 2 23 0 30 -3 6 -5 -1 -5 -18z"/>
<path d="M10042 2615 c0 -16 2 -22 5 -12 2 9 2 23 0 30 -3 6 -5 -1 -5 -18z"/>
<path d="M9982 2600 c0 -14 2 -19 5 -12 2 6 2 18 0 25 -3 6 -5 1 -5 -13z"/>
<path d="M10092 2580 c0 -14 2 -19 5 -12 2 6 2 18 0 25 -3 6 -5 1 -5 -13z"/>
<path d="M10071 2490 c14 -31 19 -36 19 -24 0 6 -7 19 -16 30 -14 18 -14 18
-3 -6z"/>
<path d="M9991 2490 c-1 -17 35 -100 43 -100 3 0 -3 19 -13 43 -10 23 -20 49
-24 57 -5 13 -5 13 -6 0z"/>
<path d="M10130 2485 c0 -5 5 -17 10 -25 5 -8 10 -10 10 -5 0 6 -5 17 -10 25
-5 8 -10 11 -10 5z"/>
<path d="M11540 873 c24 -21 39 -42 36 -50 -3 -8 1 -27 9 -43 22 -42 19 -74
-10 -108 -14 -17 -36 -54 -50 -84 -47 -103 -54 -87 114 -251 167 -161 188
-173 255 -142 35 17 36 19 36 74 0 92 16 130 76 186 l54 50 -46 24 c-60 32
-130 111 -189 211 -26 45 -54 84 -61 87 -7 3 -29 -1 -49 -7 -54 -18 -97 -5
-153 45 -28 25 -53 45 -56 45 -3 0 12 -16 34 -37z m98 -78 c28 -14 34 -14 68
0 21 9 43 14 49 11 6 -2 30 -36 54 -75 47 -80 136 -180 187 -212 l34 -21 -39
-29 c-33 -23 -44 -40 -61 -95 -11 -36 -20 -84 -20 -105 0 -33 -4 -41 -26 -49
-53 -20 -66 -13 -214 125 -80 75 -146 141 -148 148 -5 21 34 119 67 171 35 56
38 74 16 116 -18 34 -11 37 33 15z"/>
<path d="M11510 800 c-20 -20 -24 -37 -20 -97 2 -46 -15 -71 -60 -84 -22 -7
-40 -15 -40 -17 0 -3 10 -16 23 -30 24 -26 24 -25 -30 -58 -10 -7 -16 -13 -13
-16 3 -2 47 -41 98 -87 50 -46 92 -80 92 -77 0 3 -20 37 -45 76 -25 39 -45 77
-45 85 0 28 41 123 70 164 21 28 30 52 30 78 0 81 -21 102 -60 63z"/>
</g>
</svg>
