<?xml version="1.0" standalone="no"?>
<!DOCTYPE svg PUBLIC "-//W3C//DTD SVG 20010904//EN"
 "http://www.w3.org/TR/2001/REC-SVG-20010904/DTD/svg10.dtd">
<svg version="1.0" xmlns="http://www.w3.org/2000/svg"
 width="797.000000pt" height="797.000000pt" viewBox="0 0 797.000000 797.000000"
 preserveAspectRatio="xMidYMid meet">

<g transform="translate(0.000000,797.000000) scale(0.100000,-0.100000)"
fill="#000000" stroke="none">
<path d="M3385 4863 c-11 -3 -26 -10 -34 -16 -21 -18 -120 -154 -139 -192 -9
-19 -19 -35 -22 -35 -3 0 -20 26 -37 58 -55 100 -71 112 -150 112 -65 0 -413
-23 -535 -35 -54 -6 -58 -5 -58 15 0 36 -19 59 -58 69 -55 14 -591 25 -623 13
-27 -11 -95 -100 -145 -188 -26 -47 -27 -54 -15 -77 9 -16 11 -39 7 -64 -4
-21 -11 -103 -16 -183 -4 -80 -9 -148 -9 -152 -1 -5 -7 -8 -15 -8 -8 0 -16 -6
-19 -12 -3 -10 -7 -10 -18 -1 -12 10 -15 5 -15 -29 -1 -26 2 -35 7 -27 5 8 9
10 9 4 0 -22 -15 -33 -27 -20 -7 7 -8 17 -2 26 13 21 11 29 -5 23 -11 -4 -13
1 -10 18 4 21 4 21 -5 3 -7 -15 -10 -16 -10 -4 -1 9 -12 22 -26 29 -25 14 -36
36 -12 27 8 -3 12 10 14 47 1 49 1 50 -7 12 -4 -23 -17 -47 -31 -57 -20 -16
-21 -19 -6 -19 10 0 29 -11 42 -25 48 -47 24 -154 -42 -188 -32 -17 -201 -40
-253 -35 -32 3 -35 6 -42 43 -4 22 -7 75 -7 117 -1 42 -5 79 -9 82 -4 2 -6
-28 -5 -67 2 -65 1 -69 -9 -37 -6 19 -13 29 -15 23 -3 -7 -11 -13 -20 -13 -8
0 -20 -6 -27 -12 -8 -7 -23 -20 -35 -28 -11 -8 -21 -20 -21 -27 0 -7 -4 -13
-8 -13 -19 0 -43 115 -57 275 -16 185 -21 200 -102 323 -37 56 -38 57 -41 27
-5 -51 27 -568 37 -602 18 -59 120 -222 149 -237 25 -13 60 -11 322 19 162 19
310 39 328 45 18 7 39 25 47 41 15 28 42 41 87 41 13 0 149 -3 304 -7 l281 -8
29 32 c16 18 38 52 49 74 11 23 24 42 30 42 5 0 30 -49 55 -109 49 -115 82
-156 128 -156 15 0 119 7 232 15 356 26 410 37 425 84 3 11 14 23 25 26 10 3
128 -1 262 -9 414 -26 395 -29 453 70 21 35 41 64 45 64 4 0 11 -12 15 -27 14
-62 69 -190 91 -212 27 -29 31 -29 384 -12 158 7 275 17 289 24 26 13 35 26
51 70 11 31 32 34 165 17 143 -17 467 -40 491 -34 21 5 71 63 114 130 8 13 20
22 25 21 6 -2 18 -48 27 -102 13 -79 22 -103 43 -124 l25 -26 324 -3 324 -3
28 24 c25 22 28 33 33 103 7 94 23 105 75 55 l32 -31 285 5 c156 3 297 9 313
13 16 5 39 20 50 35 18 25 21 54 34 323 11 234 11 302 1 325 -19 46 -206 218
-246 225 -32 6 -530 -22 -585 -33 -32 -6 -68 -46 -68 -74 0 -18 -13 -19 -279
-19 -153 0 -298 -3 -323 -6 -41 -6 -46 -4 -51 16 -6 23 -6 23 -30 -6 -52 -63
-117 -168 -127 -204 -6 -21 -15 -87 -20 -147 -13 -139 -27 -215 -41 -224 -8
-4 -7 -8 2 -12 10 -4 9 -6 -3 -6 -9 -1 -21 -8 -25 -16 -7 -12 -14 -9 -40 15
-33 31 -63 39 -63 18 0 -7 -10 3 -22 22 -12 20 -23 30 -25 23 -10 -27 -21 -11
-28 40 l-7 52 -14 -47 c-16 -54 -29 -64 -22 -19 2 17 1 28 -4 25 -4 -3 -8 -49
-8 -103 0 -102 -7 -121 -45 -121 -42 0 -45 14 -45 220 0 214 3 225 55 233 17
3 10 4 -16 3 -34 -1 -46 -5 -45 -16 2 -25 -33 -24 -43 2 -12 31 -59 65 -159
114 -77 38 -84 39 -93 22 -7 -13 -5 -25 7 -43 12 -18 14 -37 10 -72 -4 -27
-10 -84 -15 -128 -5 -54 -8 -66 -9 -37 -1 26 -6 41 -12 37 -5 -3 -10 -1 -10 4
0 6 -4 11 -10 11 -5 0 -10 -17 -10 -37 0 -21 -5 -45 -10 -53 -7 -11 -10 -12
-10 -2 0 7 -7 21 -16 29 -13 13 -17 14 -24 3 -6 -9 -10 -6 -15 11 -12 38 -46
69 -74 68 -25 -1 -25 -2 3 -8 19 -4 35 -18 47 -41 18 -33 18 -35 1 -51 -13
-12 -28 -15 -62 -10 l-45 5 50 6 c40 4 51 9 54 25 3 19 3 19 -16 3 -13 -12
-36 -18 -70 -18 -82 0 -143 -11 -143 -26 0 -8 7 -14 16 -14 8 0 12 5 9 10 -3
6 3 10 14 10 28 0 36 -18 9 -22 -20 -3 -21 -4 -5 -19 15 -16 15 -17 -3 -22
-14 -4 -18 0 -15 14 2 11 -2 19 -8 19 -7 0 -14 -14 -15 -31 l-3 -31 78 4 c91
6 113 2 113 -21 0 -40 -22 -50 -107 -52 l-83 -2 0 -81 c0 -96 -11 -119 -55
-114 -27 3 -30 7 -38 53 -5 27 -7 125 -5 217 2 106 -1 169 -7 172 -6 2 -9 -22
-9 -63 2 -60 1 -62 -6 -21 -4 25 -8 37 -8 28 -1 -11 -10 -18 -24 -18 -19 0
-20 -2 -8 -10 12 -8 11 -10 -7 -10 -13 0 -23 5 -23 10 0 6 -22 10 -49 10 -39
0 -51 -4 -54 -17 -5 -19 -11 41 -7 67 4 30 -45 223 -78 306 -17 43 -18 53 -7
65 10 11 11 21 2 49 -17 49 -44 55 -302 69 -121 6 -247 13 -280 15 -33 2 -69
2 -80 -1z m-1251 -30 c56 -4 74 -9 66 -17 -7 -7 -58 -11 -132 -11 -78 0 -122
-4 -125 -11 -2 -7 31 -11 99 -13 57 -1 107 -6 112 -11 15 -15 -12 -20 -133
-22 -81 -2 -116 -7 -119 -15 -3 -10 23 -13 105 -13 111 0 153 -10 123 -30 -8
-5 -21 -8 -28 -5 -8 3 -79 5 -158 5 -167 0 -174 4 -128 73 53 80 48 77 149 77
51 0 127 -3 169 -7z m1599 -9 c64 -3 107 -10 107 -17 0 -7 -40 -8 -125 -4 -82
4 -126 3 -131 -4 -10 -17 1 -20 100 -26 53 -3 99 -10 102 -14 7 -12 -2 -12
-126 -9 -87 2 -108 -1 -119 -14 -7 -9 -10 -16 -5 -17 5 0 57 -4 116 -8 102 -7
129 -13 115 -27 -7 -7 -326 11 -334 20 -7 7 66 114 87 127 8 5 35 7 60 4 25
-2 93 -7 153 -11z m3159 -2 c18 -18 -8 -34 -42 -27 -57 14 -152 17 -163 6 -8
-8 6 -11 54 -12 137 -1 218 -13 240 -36 l21 -21 -26 -17 c-40 -27 -205 -36
-274 -15 -97 28 -47 43 85 25 55 -8 107 0 99 14 -3 4 -58 11 -123 13 -65 3
-131 11 -146 17 -38 15 -32 42 13 58 46 17 244 13 262 -5z m-3910 -124 c20
-34 35 -66 32 -70 -11 -18 -106 -4 -214 31 -63 21 -117 36 -119 35 -2 -2 6
-18 18 -37 30 -48 27 -57 -19 -57 -35 0 -43 5 -60 33 -23 37 -44 96 -37 103
14 14 92 3 177 -24 52 -17 108 -34 124 -38 l30 -7 -22 35 c-30 49 -28 58 16
58 36 0 40 -3 74 -62z m3248 2 c0 -5 -24 -11 -52 -11 -86 -2 -83 -1 -79 -34
11 -77 8 -90 -22 -93 -38 -5 -53 10 -67 66 -6 26 -17 50 -23 54 -7 4 -40 8
-74 8 -35 0 -63 4 -63 10 0 6 70 10 190 10 120 0 190 -4 190 -10z m930 -30 c0
-5 7 -10 16 -10 8 0 12 -4 9 -10 -9 -15 -41 -12 -54 4 -9 11 -9 15 1 19 21 9
28 8 28 -3z m-5520 -22 c0 -13 -23 -5 -28 10 -2 7 2 10 12 6 9 -3 16 -11 16
-16z m340 2 c3 -5 63 -10 134 -12 88 -3 131 -8 134 -16 3 -9 -17 -11 -75 -7
-43 3 -159 7 -258 9 -175 4 -255 12 -255 25 0 9 314 10 320 1z m4993 3 c9 -2
15 -9 11 -14 -3 -6 -12 -8 -19 -5 -7 2 -17 0 -23 -6 -8 -8 -20 -7 -43 3 -25
10 -34 10 -37 1 -4 -14 -42 -16 -42 -2 0 6 -7 10 -15 10 -8 0 -15 -4 -15 -10
0 -5 -24 -10 -53 -10 -28 0 -67 -4 -85 -9 -27 -8 -32 -7 -32 7 0 14 12 17 77
18 43 1 79 6 81 12 3 10 160 14 195 5z m127 -3 c0 -12 -24 -12 -60 0 -21 7
-19 8 18 9 23 1 42 -3 42 -9z m-6299 -238 c5 -20 9 -73 9 -117 1 -44 5 -102 9
-128 4 -26 6 -71 3 -98 l-5 -50 -23 42 c-20 34 -26 64 -34 178 -5 75 -10 168
-10 206 l0 70 21 -33 c12 -18 25 -49 30 -70z m6188 80 c20 -10 40 -30 47 -47
28 -72 -36 -106 -75 -40 -18 30 -25 35 -58 35 -66 0 -107 -48 -68 -80 7 -6 49
-20 92 -31 45 -11 87 -29 101 -42 21 -19 23 -29 20 -79 -3 -44 -10 -64 -29
-84 -78 -85 -245 -84 -286 2 -25 52 -1 104 41 88 8 -3 20 -19 27 -35 6 -17 23
-38 36 -46 49 -32 145 24 128 75 -6 21 -37 36 -95 48 -68 13 -107 34 -126 69
-33 61 9 142 89 172 47 17 117 15 156 -5z m-4934 0 c32 -6 41 -12 43 -31 2
-13 -2 -28 -10 -33 -7 -4 -61 -6 -120 -2 l-108 7 0 -56 0 -55 102 -1 c107 -2
131 -10 126 -45 -3 -20 -9 -21 -116 -21 l-113 1 3 -61 3 -60 115 -3 c120 -4
143 -11 138 -46 -3 -20 -8 -21 -157 -19 -121 1 -157 5 -169 16 -19 20 -38 367
-22 398 10 17 22 19 128 18 64 0 135 -3 157 -7z m1645 -12 c18 -5 25 -13 25
-31 l0 -24 -122 1 -123 1 0 -52 0 -52 100 -7 c120 -8 130 -11 130 -41 0 -31
-9 -33 -123 -26 -54 3 -101 4 -103 2 -10 -11 -3 -112 9 -116 6 -3 61 -8 121
-12 87 -6 111 -11 120 -25 8 -14 7 -21 -5 -33 -14 -14 -33 -15 -160 -6 -164
12 -169 15 -169 91 0 26 -3 107 -6 181 -9 178 -15 171 154 163 70 -4 138 -10
152 -14z m-663 -58 c8 -5 14 -68 19 -199 6 -170 5 -195 -10 -217 -21 -33 -56
-34 -87 -2 -13 13 -62 76 -109 140 l-85 116 -2 -128 c-3 -158 -6 -172 -37
-172 -13 0 -28 6 -34 13 -6 7 -14 96 -18 207 -6 188 -6 196 14 213 40 36 61
20 175 -131 l107 -143 0 144 c0 145 5 167 40 167 8 0 20 -4 27 -8z m3231 -74
c16 -16 15 -23 -4 -42 -11 -11 -34 -16 -78 -16 l-63 0 -5 -169 c-5 -180 -10
-201 -53 -201 -44 0 -47 17 -39 200 l7 170 -65 0 c-71 0 -94 14 -83 50 6 19
14 20 189 20 128 0 186 -4 194 -12z m-1582 -63 c-11 -8 -24 -15 -30 -15 -5 0
-1 7 10 15 10 8 24 14 29 14 6 0 1 -6 -9 -14z m-87 -1 c17 -4 31 -10 31 -15 0
-4 -14 -3 -30 3 -17 5 -43 7 -58 4 -20 -5 -23 -4 -12 4 18 12 27 12 69 4z
m-339 -14 c0 -5 -4 -10 -10 -10 -5 0 -10 5 -10 10 0 6 5 10 10 10 6 0 10 -4
10 -10z m440 -15 c0 -8 -7 -15 -15 -15 -26 0 -18 20 13 29 1 1 2 -6 2 -14z
m-123 -17 c-3 -8 -6 -5 -6 6 -1 11 2 17 5 13 3 -3 4 -12 1 -19z m43 -8 c0 -5
-4 -10 -10 -10 -5 0 -10 5 -10 10 0 6 5 10 10 10 6 0 10 -4 10 -10z m-3583
-177 c-3 -10 -5 -2 -5 17 0 19 2 27 5 18 2 -10 2 -26 0 -35z"/>
<path d="M765 4383 c10 -74 15 -93 25 -93 15 0 12 66 -4 105 -21 48 -28 44
-21 -12z"/>
<path d="M772 4197 c3 -35 12 -74 19 -88 13 -23 14 -22 17 26 3 47 -19 125
-35 125 -3 0 -3 -28 -1 -63z"/>
<path d="M5206 4455 c8 -37 14 -45 14 -19 0 10 -5 26 -10 34 -8 11 -9 7 -4
-15z"/>
<path d="M4400 4400 c-26 -5 -18 -7 35 -6 45 0 61 2 45 7 -30 8 -35 8 -80 -1z"/>
<path d="M1098 4393 c6 -2 18 -2 25 0 6 3 1 5 -13 5 -14 0 -19 -2 -12 -5z"/>
<path d="M1380 4393 c1 -14 30 -48 30 -34 0 7 -7 19 -15 27 -8 9 -15 12 -15 7z"/>
<path d="M4676 4393 c7 -4 14 -19 17 -33 4 -22 5 -21 4 4 -1 17 -9 31 -17 33
-10 3 -11 2 -4 -4z"/>
<path d="M5211 4354 c0 -11 3 -14 6 -6 3 7 2 16 -1 19 -3 4 -6 -2 -5 -13z"/>
<path d="M1228 4323 c12 -2 32 -2 45 0 12 2 2 4 -23 4 -25 0 -35 -2 -22 -4z"/>
<path d="M1306 4295 c4 -9 -6 -27 -25 -44 -25 -23 -27 -28 -11 -24 35 9 71 83
40 83 -5 0 -7 -7 -4 -15z"/>
<path d="M1161 4248 c-1 -30 3 -32 34 -17 19 9 19 9 -2 5 -16 -3 -23 2 -26 18
-3 17 -5 15 -6 -6z"/>
<path d="M1177 4143 c-14 -13 -6 -22 21 -26 l27 -4 -27 -2 c-26 -1 -28 -4 -28
-45 l0 -45 38 5 c79 11 98 15 115 28 20 16 35 72 16 60 -8 -5 -9 -3 -4 6 4 7
2 16 -6 21 -16 10 -143 12 -152 2z m143 -13 c0 -5 -5 -10 -12 -10 -6 0 -3 -7
8 -15 18 -13 17 -14 -13 -21 -18 -3 -33 -13 -33 -20 0 -9 -11 -13 -32 -13 -30
2 -30 2 -6 6 19 3 26 10 25 24 -1 10 -6 19 -12 20 -5 0 4 7 20 15 27 13 27 14
5 10 -14 -3 -41 -1 -60 4 -30 7 -24 8 38 9 42 1 72 -3 72 -9z m-92 -57 c-10
-2 -26 -2 -35 0 -10 3 -2 5 17 5 19 0 27 -2 18 -5z"/>
<path d="M1275 4100 c3 -5 14 -10 23 -10 15 0 15 2 2 10 -20 13 -33 13 -25 0z"/>
</g>
</svg>
