<?xml version="1.0" standalone="no"?>
<!DOCTYPE svg PUBLIC "-//W3C//DTD SVG 20010904//EN"
 "http://www.w3.org/TR/2001/REC-SVG-20010904/DTD/svg10.dtd">
<svg version="1.0" xmlns="http://www.w3.org/2000/svg"
 width="1024.000000pt" height="1024.000000pt" viewBox="0 0 1024.000000 1024.000000"
 preserveAspectRatio="xMidYMid meet">

<g transform="translate(0.000000,1024.000000) scale(0.100000,-0.100000)"
fill="#000000" stroke="none">
<path d="M5130 9005 c0 -2 14 -11 30 -20 30 -16 40 -9 18 13 -12 12 -48 17
-48 7z"/>
<path d="M4895 8954 c-54 -29 -84 -52 -50 -40 11 4 49 17 85 28 79 26 95 38
49 38 -19 0 -57 -12 -84 -26z"/>
<path d="M5454 8965 c36 -19 57 -19 32 0 -11 8 -29 15 -40 15 -18 0 -16 -3 8
-15z"/>
<path d="M4799 8842 c-67 -44 -160 -145 -146 -158 3 -3 16 10 29 30 13 19 39
44 59 55 20 12 49 37 63 56 31 40 31 41 -5 17z"/>
<path d="M5825 8781 c16 -19 17 -25 6 -29 -8 -3 13 -31 62 -81 41 -42 87 -96
101 -121 17 -28 25 -35 21 -20 -12 44 -51 103 -99 150 -25 25 -46 50 -46 56 0
5 -15 23 -32 40 -23 21 -27 22 -13 5z"/>
<path d="M5760 8760 c8 -5 22 -10 30 -10 13 0 13 1 0 10 -8 5 -22 10 -30 10
-13 0 -13 -1 0 -10z"/>
<path d="M5113 8649 c21 -13 22 -29 1 -29 -14 0 -14 -3 -4 -15 15 -18 37 -20
43 -2 2 6 7 -6 11 -28 10 -53 14 -57 36 -42 41 25 12 85 -54 112 -40 17 -60
19 -33 4z"/>
<path d="M4606 8641 c-4 -7 -5 -15 -2 -18 9 -9 19 4 14 18 -4 11 -6 11 -12 0z"/>
<path d="M5006 8609 c-14 -17 -26 -36 -27 -42 0 -7 -4 -33 -8 -59 -4 -27 -6
-48 -3 -48 14 0 31 40 32 72 0 58 15 88 45 88 15 0 24 4 20 10 -11 18 -33 10
-59 -21z"/>
<path d="M5995 8610 c33 -53 75 -113 75 -106 0 9 -70 116 -77 116 -2 0 -1 -5
2 -10z"/>
<path d="M5340 8486 c0 -4 8 -20 19 -34 10 -15 21 -40 25 -56 4 -17 16 -41 26
-55 24 -35 40 -97 33 -132 -6 -33 14 -63 48 -72 16 -4 19 -2 15 10 -4 9 -18
49 -31 90 -35 104 -135 289 -135 249z"/>
<path d="M5060 8460 c0 -6 7 -10 15 -10 8 0 15 2 15 4 0 2 -7 6 -15 10 -8 3
-15 1 -15 -4z"/>
<path d="M5155 8420 c3 -5 8 -10 11 -10 2 0 4 5 4 10 0 6 -5 10 -11 10 -5 0
-7 -4 -4 -10z"/>
<path d="M4960 8390 c0 -5 -12 -20 -26 -34 -19 -17 -25 -30 -20 -43 7 -17 8
-17 17 0 7 11 22 17 46 17 47 0 153 22 153 31 0 15 -40 20 -77 10 -21 -6 -48
-11 -61 -11 -19 0 -22 4 -17 20 4 11 2 20 -4 20 -6 0 -11 -4 -11 -10z"/>
<path d="M4921 8243 c0 -25 1 -26 9 -8 12 27 12 35 0 35 -5 0 -10 -12 -9 -27z"/>
<path d="M5445 8110 c3 -5 10 -10 16 -10 5 0 9 5 9 10 0 6 -7 10 -16 10 -8 0
-12 -4 -9 -10z"/>
<path d="M5505 8080 c3 -5 8 -10 11 -10 2 0 4 5 4 10 0 6 -5 10 -11 10 -5 0
-7 -4 -4 -10z"/>
<path d="M6385 8018 c135 -186 251 -376 329 -542 48 -101 54 -121 41 -128 -20
-12 -19 -28 1 -28 12 0 15 -6 10 -24 -4 -15 0 -28 9 -36 8 -7 15 -9 15 -5 0 4
7 2 15 -5 12 -10 13 -16 4 -27 -9 -10 -8 -17 3 -31 9 -9 13 -23 10 -31 -2 -8
4 -21 15 -30 30 -25 120 -182 127 -223 5 -26 11 -35 20 -32 9 4 25 -16 45 -57
38 -73 40 -68 -79 -158 -41 -31 -120 -99 -175 -151 -113 -107 -152 -139 -244
-194 l-64 -39 -36 44 c-83 101 -242 256 -326 319 -115 85 -334 239 -360 252
-18 9 -18 9 -5 -4 8 -9 105 -83 215 -166 118 -88 235 -186 286 -238 141 -144
229 -250 229 -274 0 -7 7 -21 15 -30 14 -15 11 -21 -32 -61 -42 -39 -45 -44
-26 -47 12 -2 40 9 63 24 34 23 44 25 65 16 16 -7 25 -20 25 -34 0 -13 7 -32
15 -42 11 -15 12 -23 3 -33 -14 -17 -12 -18 36 -29 28 -7 46 -20 69 -51 29
-41 30 -43 13 -62 -23 -26 -12 -42 23 -35 36 8 49 -11 25 -37 -19 -21 -13 -33
19 -36 12 -1 36 -5 52 -8 26 -6 41 1 93 39 34 25 62 48 62 51 0 2 -19 -2 -42
-11 -22 -8 -43 -12 -46 -10 -6 7 45 67 72 85 12 8 64 49 116 91 166 132 210
162 223 152 8 -7 20 -6 37 3 42 23 57 18 30 -10 -38 -40 -19 -37 50 8 71 46
87 77 51 97 -22 11 -28 44 -11 55 22 13 9 27 -19 22 -37 -8 -61 15 -43 43 14
23 5 31 -24 24 -32 -8 -57 41 -48 96 6 40 6 40 -25 40 -17 0 -31 5 -31 10 0 6
-11 16 -25 22 -30 14 -33 48 -5 66 11 7 20 17 20 23 0 5 9 19 20 31 11 12 20
26 20 30 0 20 -36 20 -74 0 -51 -27 -62 -27 -77 -1 -6 12 -32 47 -57 79 -75
92 -197 305 -248 430 -25 63 -49 120 -53 125 -4 6 -23 46 -42 90 -35 82 -113
233 -153 295 -112 173 -249 360 -263 360 -2 0 16 -28 42 -62z m560 -1457 c-6
-6 -46 -37 -90 -70 -79 -60 -110 -77 -84 -44 24 28 153 123 169 123 9 0 10 -3
5 -9z m81 -40 c-6 -9 -41 -36 -235 -183 -42 -32 -80 -58 -85 -58 -26 0 132
135 248 213 66 43 86 52 72 28z m94 1 c0 -25 -425 -340 -439 -326 -12 12 193
181 332 275 87 58 107 67 107 51z m-20 -105 c-98 -92 -348 -263 -373 -254 -11
3 38 41 268 206 77 55 145 100 150 100 6 0 -15 -23 -45 -52z m5 -63 c-43 -37
-268 -196 -287 -203 -37 -13 75 77 251 201 68 47 89 49 36 2z m175 -3 c0 -5
-7 -14 -15 -21 -8 -7 -15 -18 -15 -25 0 -7 -12 -17 -27 -23 -16 -5 -53 -29
-83 -54 -138 -113 -343 -268 -354 -268 -6 0 -17 10 -25 22 -13 20 -11 24 24
54 21 17 57 37 79 44 23 6 61 23 86 38 54 30 207 145 270 201 45 40 60 48 60
32z m-100 -5 c0 -5 -178 -147 -202 -161 -10 -5 -36 -23 -58 -39 -69 -50 -54
-22 22 41 78 63 153 117 202 145 35 19 36 20 36 14z m75 -95 c-3 -6 -11 -8
-17 -5 -6 4 -5 9 3 15 16 10 23 4 14 -10z m55 -1 c-6 -11 -30 -32 -53 -47 -61
-38 -337 -255 -337 -265 0 -4 -7 -8 -15 -8 -22 0 -18 16 9 33 13 9 54 42 92
75 76 65 296 229 312 231 1 1 -2 -8 -8 -19z m-105 -20 c-9 -15 -207 -171 -280
-222 -144 -100 73 82 250 209 35 25 38 26 30 13z m115 -40 c0 -5 -7 -10 -16
-10 -8 0 -12 5 -9 10 3 6 10 10 16 10 5 0 9 -4 9 -10z m20 -25 c-7 -8 -17 -15
-22 -15 -6 0 -5 7 2 15 7 8 17 15 22 15 6 0 5 -7 -2 -15z m-100 -28 c-14 -12
-41 -33 -59 -47 -18 -14 -38 -30 -44 -35 -34 -29 -191 -147 -203 -152 -29 -11
-11 6 79 75 185 143 304 226 227 159z"/>
<path d="M5526 8020 c3 -19 12 -65 20 -102 8 -37 14 -85 14 -108 0 -23 4 -39
9 -36 4 3 7 16 5 28 -20 141 -37 235 -45 243 -6 6 -7 -4 -3 -25z"/>
<path d="M5038 7993 c-2 -10 -1 -36 3 -58 6 -37 6 -36 8 18 1 57 -3 73 -11 40z"/>
<path d="M5069 7863 c-10 -2 -19 -13 -22 -24 -4 -13 -1 -18 6 -15 7 3 20 9 30
12 9 4 17 13 17 20 0 14 -3 15 -31 7z"/>
<path d="M4790 7835 c-13 -14 -29 -25 -37 -25 -7 0 -13 -4 -13 -10 0 -5 5 -10
12 -10 6 0 4 -7 -5 -18 -10 -10 -17 -24 -17 -30 0 -6 -8 -13 -18 -16 -25 -8
-46 -46 -33 -59 8 -8 11 -7 11 4 0 8 21 35 46 59 42 41 91 117 81 126 -2 2
-14 -7 -27 -21z"/>
<path d="M4670 7774 l-25 -15 25 5 c14 3 31 6 38 6 6 0 12 5 12 10 0 14 -21
12 -50 -6z"/>
<path d="M4430 7750 c0 -20 105 -27 130 -9 11 8 6 9 -20 5 -19 -3 -52 -2 -72
3 -21 5 -38 5 -38 1z"/>
<path d="M5231 7688 c63 -129 85 -170 92 -175 4 -3 -17 45 -48 106 -30 61 -57
111 -60 111 -3 0 4 -19 16 -42z"/>
<path d="M5330 7491 c0 -6 4 -13 10 -16 6 -3 7 1 4 9 -7 18 -14 21 -14 7z"/>
<path d="M5360 7434 c0 -5 7 -18 15 -28 8 -11 15 -16 15 -10 0 5 -7 18 -15 28
-8 11 -15 16 -15 10z"/>
<path d="M5390 7377 c0 -11 143 -262 158 -277 18 -18 22 -27 -73 140 -79 138
-85 148 -85 137z"/>
<path d="M5637 7213 c-4 -3 -7 -11 -7 -17 0 -6 5 -5 12 2 6 6 9 14 7 17 -3 3
-9 2 -12 -2z"/>
<path d="M5642 7066 c3 -108 6 -120 25 -133 21 -14 21 -14 8 24 -7 21 -16 78
-20 128 -4 49 -9 92 -12 95 -3 3 -3 -49 -1 -114z"/>
<path d="M3139 7035 c-55 -49 -131 -150 -172 -231 -26 -52 -40 -138 -35 -231
3 -74 9 -97 30 -135 16 -26 25 -53 22 -65 -3 -11 1 -34 10 -51 15 -30 48 -47
136 -69 40 -10 39 -8 11 -113 -11 -41 -21 -101 -21 -133 0 -54 3 -60 42 -103
24 -26 71 -67 106 -91 59 -43 66 -45 114 -41 36 4 83 22 159 62 59 31 114 56
122 56 8 0 43 -44 77 -97 35 -54 75 -115 89 -137 14 -21 41 -50 59 -64 31 -23
43 -26 111 -25 131 3 198 39 333 181 89 93 142 169 203 290 65 128 74 187 66
427 -3 110 -9 205 -13 211 -4 6 3 26 16 45 29 44 71 127 81 159 4 14 14 39 22
57 10 22 12 37 5 49 -8 15 -16 5 -48 -59 -20 -42 -42 -77 -48 -77 -7 0 -12 -9
-13 -20 -1 -10 -13 -36 -27 -57 -14 -21 -26 -45 -26 -55 0 -9 -5 -40 -11 -68
-9 -44 -13 -50 -31 -44 -18 5 -18 2 8 -41 l27 -47 -22 -17 c-17 -13 -21 -23
-16 -44 7 -28 -3 -35 -23 -15 -9 9 -9 2 -1 -28 7 -23 8 -67 4 -109 l-7 -70 24
21 c23 22 68 38 68 25 0 -15 -68 -70 -117 -95 -57 -28 -228 -69 -255 -60 -9 3
-27 0 -39 -7 -19 -10 -21 -9 -16 5 9 22 -22 21 -39 -1 -13 -17 -14 -17 -8 1 6
16 3 18 -34 11 -26 -4 -55 -2 -79 6 -42 15 -227 148 -218 157 3 4 24 5 47 3
40 -3 40 -2 34 26 -13 53 -87 101 -146 94 -8 -1 -30 -2 -47 -2 -36 -1 -41 -10
-18 -29 21 -17 19 -40 -4 -40 -10 0 -40 10 -67 22 -27 12 -53 21 -57 20 -4 -1
-24 10 -44 25 l-36 28 13 -25 c7 -14 20 -30 29 -37 21 -15 12 -22 -20 -16 -18
3 -35 21 -58 59 -33 56 -40 61 -57 44 -8 -8 -15 -6 -24 5 -22 26 -47 18 -54
-17 -5 -27 -8 -30 -20 -17 -7 7 -23 39 -35 69 -36 89 -97 167 -116 148 -4 -3
5 -28 19 -56 16 -32 21 -53 15 -59 -6 -6 1 -36 21 -84 38 -93 38 -107 4 -80
-15 12 -41 21 -58 21 -21 1 -44 13 -74 38 -41 37 -43 40 -52 120 -8 70 -6 94
10 160 20 77 70 188 94 207 7 6 20 24 29 40 8 17 38 48 66 70 45 35 62 55 46
55 -2 0 -32 -25 -66 -55z m591 -731 c0 -8 -5 -12 -10 -9 -10 6 -34 0 -126 -31
-36 -13 -41 -18 -41 -47 0 -21 8 -41 25 -59 20 -22 22 -28 9 -28 -27 0 -87 41
-87 59 0 61 60 106 160 121 69 11 70 11 70 -6z m-437 -145 c20 -17 37 -38 37
-48 0 -10 11 -28 25 -41 14 -13 23 -30 20 -38 -9 -24 73 -95 129 -112 58 -18
67 -34 29 -49 -15 -6 -48 -22 -72 -36 -48 -27 -103 -32 -136 -12 -43 25 -85
61 -85 72 0 7 -12 25 -26 41 -23 24 -25 29 -11 38 13 8 12 15 -10 49 -29 47
-21 64 12 23 15 -19 29 -27 39 -23 13 5 15 11 7 26 -8 14 -7 21 2 24 9 4 9 7
0 18 -14 14 -18 99 -5 99 4 0 24 -14 45 -31z m657 -27 c36 -10 74 -23 85 -29
19 -12 19 -12 1 -13 -12 0 -16 -5 -12 -16 5 -13 0 -15 -36 -9 -33 6 -114 36
-136 50 -1 1 0 10 4 19 7 19 12 19 94 -2z m-720 -1 c0 -12 -20 -25 -27 -18 -7
7 6 27 18 27 5 0 9 -4 9 -9z m260 -22 c0 -6 -4 -7 -10 -4 -5 3 -10 11 -10 16
0 6 5 7 10 4 6 -3 10 -11 10 -16z m581 -58 c-14 -26 -5 -31 51 -31 36 0 48 4
48 15 0 10 11 15 35 15 37 0 43 -8 23 -29 -11 -10 3 -12 69 -10 68 3 85 0 102
-16 12 -10 21 -22 21 -26 0 -11 -110 -63 -117 -55 -4 4 10 21 30 40 42 38 45
46 18 46 -11 0 -28 -15 -40 -35 -11 -19 -26 -35 -33 -35 -7 0 -35 -12 -63 -25
-39 -20 -58 -24 -88 -19 -21 3 -43 1 -50 -5 -17 -13 -127 26 -127 45 0 8 7 14
15 14 8 0 15 7 15 15 0 9 9 15 23 15 12 0 49 4 82 8 63 8 58 14 -20 28 -58 10
-87 22 -80 34 4 7 13 7 26 0 15 -8 24 -6 41 10 27 25 32 25 19 1z m-334 -27
c-9 -9 -28 6 -21 18 4 6 10 6 17 -1 6 -6 8 -13 4 -17z m43 -84 c0 -5 -7 -10
-15 -10 -8 0 -15 5 -15 10 0 6 7 10 15 10 8 0 15 -4 15 -10z m86 -35 c3 -13
-1 -43 -10 -67 -9 -24 -15 -54 -14 -67 5 -37 -14 -34 -45 7 -35 46 -32 73 11
91 34 15 40 29 20 49 -9 9 -7 12 10 12 15 0 24 -8 28 -25z m94 -102 c0 -7 -9
-13 -20 -13 -22 0 -37 38 -26 67 6 14 10 12 26 -12 11 -17 20 -36 20 -42z
m-20 -153 c9 -16 8 -20 -5 -20 -8 0 -15 2 -15 4 0 2 -3 11 -6 20 -9 23 13 20
26 -4z"/>
<path d="M4144 6294 c-4 -10 -16 -32 -27 -47 -23 -34 -18 -42 16 -24 18 9 23
17 17 27 -5 8 -4 22 2 33 5 10 7 21 4 24 -3 3 -9 -3 -12 -13z"/>
<path d="M2554 5523 c-11 -37 -22 -48 -48 -51 -26 -3 -27 -4 -11 -22 24 -26
15 -54 -18 -58 -31 -4 -33 -9 -11 -33 15 -17 14 -20 -6 -49 -13 -18 -34 -33
-52 -37 -34 -7 -46 -27 -28 -48 10 -12 10 -18 0 -30 -7 -8 -10 -21 -7 -30 8
-20 -22 -48 -42 -39 -9 4 -27 8 -41 10 -14 2 -37 7 -52 10 -45 10 -37 -30 12
-62 22 -15 40 -32 40 -38 0 -7 -11 -36 -25 -64 -14 -29 -25 -55 -25 -58 0 -3
-34 -64 -76 -135 -72 -120 -141 -215 -216 -298 -97 -106 -278 -346 -324 -430
-11 -18 -24 -41 -29 -50 -25 -39 -112 -199 -124 -226 -60 -135 -49 -125 32 28
89 169 153 270 269 425 65 87 105 132 114 128 20 -8 78 49 70 69 -9 24 3 38
20 24 18 -14 26 -7 28 23 1 16 7 22 19 20 9 -2 17 1 18 5 3 29 13 50 59 126
28 46 65 94 81 107 19 14 28 27 25 37 -9 24 61 113 89 113 12 0 74 -24 136
-54 63 -30 150 -65 194 -79 134 -42 326 -141 340 -175 2 -7 -6 -36 -20 -65
-71 -154 -113 -302 -148 -517 -20 -118 -38 -237 -41 -265 -10 -80 9 -31 27 70
55 301 80 419 106 490 54 147 119 297 140 319 12 12 21 27 21 34 0 21 18 21
68 0 85 -36 79 -9 -12 55 -14 10 -26 26 -26 35 1 27 65 93 84 86 19 -7 19 -3
5 46 -10 34 -9 42 16 84 22 38 31 45 50 40 30 -7 41 12 20 36 -26 28 -13 51
25 44 29 -6 42 7 20 21 -5 3 -10 19 -10 36 0 43 -50 83 -148 120 -24 9 -23 6
11 -21 20 -17 37 -36 37 -42 0 -15 -54 -2 -119 29 -31 14 -108 50 -171 80
-162 76 -180 86 -180 100 0 7 -12 24 -26 38 -32 32 -28 38 14 25 45 -12 33 1
-39 44 -66 39 -107 46 -115 19z m136 -153 c0 -5 -2 -10 -4 -10 -3 0 -8 5 -11
10 -3 6 -1 10 4 10 6 0 11 -4 11 -10z m-7 -44 c34 -25 327 -164 400 -189 10
-4 16 -11 13 -16 -10 -16 -454 191 -472 220 -11 18 28 8 59 -15z m107 -6 c8
-5 11 -10 5 -10 -5 0 -17 5 -25 10 -8 5 -10 10 -5 10 6 0 17 -5 25 -10z m202
-93 c59 -29 108 -55 108 -59 0 -10 -103 36 -257 117 -18 9 -33 18 -33 21 0 6
61 -20 182 -79z m-342 18 c19 -13 71 -40 115 -60 171 -78 355 -169 355 -174 0
-3 -7 -15 -15 -25 -13 -18 -18 -18 -55 -6 -23 7 -57 31 -78 52 -38 40 -134 99
-252 155 -36 17 -94 45 -130 62 l-65 31 45 -6 c25 -3 61 -16 80 -29z m58 16
c9 -5 88 -43 175 -85 86 -41 157 -77 157 -80 0 -3 -8 -3 -17 1 -30 10 -307
145 -328 159 -22 16 -14 19 13 5z m10 -124 c104 -52 202 -106 202 -112 0 -15
-257 108 -300 144 -39 32 -20 25 98 -32z m4 -67 c117 -59 198 -106 198 -115 0
-2 -11 0 -24 4 -34 13 -299 151 -310 162 -26 24 30 3 136 -51z m-27 -41 c153
-74 277 -150 258 -156 -7 -3 -84 32 -170 78 -87 45 -178 92 -203 105 -25 12
-54 30 -65 38 -41 33 37 5 180 -65z m12 -79 c208 -103 289 -154 221 -137 -86
22 -468 217 -468 239 0 18 39 2 247 -102z m40 -88 c117 -59 143 -83 51 -48
-126 47 -288 132 -296 154 -4 13 83 -25 245 -106z m-144 -23 c92 -46 93 -47
85 -55 -6 -5 -166 70 -182 87 -21 20 18 7 97 -32z"/>
<path d="M7313 5367 c-158 -65 -172 -87 -173 -278 0 -92 -4 -130 -13 -137 -7
-6 -69 -14 -138 -17 -137 -7 -233 -26 -263 -53 -10 -9 -34 -49 -53 -89 -27
-58 -33 -84 -33 -137 0 -148 66 -332 185 -517 76 -117 154 -188 256 -233 40
-18 101 -50 134 -70 33 -20 86 -46 117 -58 51 -18 61 -27 86 -72 52 -92 171
-220 188 -203 3 3 -18 34 -45 71 -30 39 -48 72 -45 81 4 9 -7 30 -24 49 -17
19 -33 44 -37 55 -3 12 -10 21 -14 21 -4 0 -26 15 -50 32 -32 26 -41 38 -36
55 5 20 1 21 -43 20 -45 -2 -47 -1 -50 27 -2 17 -11 30 -22 33 -10 3 -16 11
-14 18 3 7 -4 16 -15 20 -11 3 -23 14 -26 24 -3 11 -15 21 -26 24 -12 3 -18
10 -14 17 4 6 2 17 -5 24 -6 8 -8 26 -4 40 6 24 5 24 -19 13 -47 -22 -50 -42
-11 -77 20 -17 33 -34 30 -37 -3 -3 -24 11 -46 31 -48 43 -62 46 -47 7 11 -29
5 -61 -11 -61 -5 0 -12 14 -16 31 -13 65 -6 149 19 226 14 43 25 86 25 96 0 9
7 17 15 17 10 0 15 10 15 31 0 23 4 30 15 26 14 -6 45 41 45 69 0 32 121 134
159 134 6 0 35 12 66 26 31 15 58 24 61 21 4 -3 -3 -19 -15 -35 -32 -45 -27
-52 27 -46 26 2 59 5 74 6 18 1 31 9 40 27 7 14 16 28 20 31 6 5 17 44 21 80
2 11 -6 14 -30 12 -38 -4 -42 10 -13 36 11 9 29 25 40 35 11 9 24 17 30 17 5
0 13 6 17 14 4 7 19 19 32 25 15 9 20 16 13 23 -7 7 -17 6 -30 -1 -28 -15 -36
2 -11 25 14 12 40 19 85 22 57 4 64 7 59 22 -4 13 0 20 14 25 29 9 34 35 11
57 -11 10 -20 21 -20 24 0 2 54 2 120 -2 90 -5 123 -4 135 6 25 21 17 30 -29
30 -50 0 -78 8 -71 20 3 5 -25 12 -62 16 -77 8 -113 19 -113 34 0 5 9 10 19
10 11 0 32 15 48 34 81 98 213 75 354 -60 62 -61 129 -156 129 -185 0 -6 9
-22 20 -36 48 -62 -6 64 -74 170 -70 109 -247 216 -331 199 -16 -3 -44 4 -70
17 -58 29 -83 21 -147 -44 l-52 -53 -64 59 c-71 67 -155 119 -192 119 -14 0
-62 -15 -107 -33z m121 -32 c-7 -17 5 -24 45 -27 37 -3 47 -13 32 -32 -12 -14
-5 -46 9 -46 5 0 12 10 16 22 6 20 7 20 19 4 7 -9 10 -26 7 -38 -4 -18 -2 -20
21 -16 23 5 25 3 16 -14 -15 -27 -89 -58 -112 -46 -12 6 -30 5 -53 -2 -26 -9
-38 -9 -49 0 -23 19 -103 -13 -150 -60 -22 -21 -45 -39 -52 -40 -20 0 -9 171
13 209 23 38 88 71 152 77 26 3 48 8 50 12 1 4 11 8 22 9 12 1 17 -3 14 -12z
m361 -55 c-3 -5 -11 -10 -16 -10 -6 0 -7 5 -4 10 3 6 11 10 16 10 6 0 7 -4 4
-10z m-370 -270 c3 -5 2 -10 -4 -10 -5 0 -13 5 -16 10 -3 6 -2 10 4 10 5 0 13
-4 16 -10z m49 -60 c14 -5 26 -16 26 -25 0 -8 5 -15 11 -15 18 0 4 -117 -21
-172 -11 -27 -25 -48 -30 -48 -13 0 -13 17 0 25 6 4 10 12 9 18 -2 7 2 30 8
52 21 76 24 107 10 102 -6 -2 -20 2 -30 11 -14 12 -22 13 -44 3 -45 -20 -50 4
-7 33 21 14 40 26 41 26 1 0 13 -4 27 -10z m-440 -71 c9 -14 13 -33 9 -50 -4
-21 -1 -30 11 -35 22 -9 20 -24 -4 -24 -10 0 -36 17 -57 39 -21 21 -48 42 -60
46 -44 13 -19 27 79 44 4 0 14 -9 22 -20z m106 -28 c0 -12 -20 -25 -27 -18 -7
7 6 27 18 27 5 0 9 -4 9 -9z m-330 -11 c0 -5 -9 -10 -20 -10 -11 0 -20 5 -20
10 0 6 9 10 20 10 11 0 20 -4 20 -10z m425 -10 c-3 -5 -11 -10 -16 -10 -6 0
-7 5 -4 10 3 6 11 10 16 10 6 0 7 -4 4 -10z m-277 -66 c33 -14 35 -17 17 -24
-11 -5 -30 -9 -42 -9 -18 -1 -23 5 -23 24 0 30 0 30 48 9z m68 -100 c-5 -17
-3 -23 4 -19 5 3 10 -1 10 -9 0 -8 -4 -18 -10 -21 -5 -3 -10 -16 -10 -27 0
-12 -11 -41 -25 -64 -18 -31 -21 -42 -10 -38 8 3 15 9 15 13 0 14 98 116 105
109 4 -4 -16 -35 -45 -70 -29 -35 -59 -77 -66 -95 -8 -17 -18 -34 -24 -38 -6
-3 -20 -25 -31 -47 l-21 -41 -23 24 c-22 22 -23 29 -18 107 5 67 10 87 29 107
13 14 21 31 19 38 -6 15 1 24 48 65 46 39 61 41 53 6z m222 -10 c3 -23 -99
-126 -105 -106 -3 6 -11 12 -19 12 -24 0 -16 13 43 67 59 55 76 60 81 27z
m-244 -248 c-3 -14 -10 -26 -15 -26 -12 0 -11 4 3 35 14 31 21 26 12 -9z
m-138 -99 c-2 -9 2 -23 9 -31 12 -11 10 -13 -10 -13 -18 0 -25 6 -29 32 -4 18
-3 40 0 50 7 17 8 17 21 -1 8 -10 12 -27 9 -37z m244 -228 c0 -6 -4 -7 -10 -4
-5 3 -10 11 -10 16 0 6 5 7 10 4 6 -3 10 -11 10 -16z"/>
<path d="M7460 5259 c0 -5 5 -7 10 -4 6 3 10 8 10 11 0 2 -4 4 -10 4 -5 0 -10
-5 -10 -11z"/>
<path d="M8377 4835 c3 -22 9 -44 14 -49 13 -15 10 13 -6 54 l-14 35 6 -40z"/>
<path d="M7193 4386 c1 -20 6 -32 13 -29 6 2 28 -15 49 -39 42 -47 39 -38 -12
36 -18 26 -33 52 -33 57 0 5 -4 9 -9 9 -5 0 -9 -15 -8 -34z"/>
<path d="M2717 3564 c-16 -13 -64 -45 -108 -70 -44 -26 -78 -49 -75 -51 6 -7
76 29 134 68 24 16 49 29 56 29 11 0 30 39 23 46 -1 1 -15 -9 -30 -22z"/>
<path d="M7620 3432 c24 -28 46 -50 49 -47 3 3 -17 27 -44 53 l-48 47 43 -53z"/>
<path d="M2659 3418 c-14 -24 -59 -92 -98 -151 -39 -60 -67 -106 -61 -102 13
8 190 275 190 287 0 14 -4 9 -31 -34z"/>
<path d="M8450 3400 c0 -5 5 -10 11 -10 5 0 7 5 4 10 -3 6 -8 10 -11 10 -2 0
-4 -4 -4 -10z"/>
<path d="M2428 3384 c-39 -21 -35 -28 5 -8 37 19 44 24 31 24 -5 -1 -21 -8
-36 -16z"/>
<path d="M8362 3366 c-16 -19 -33 -49 -37 -66 -9 -40 2 -52 11 -14 4 16 21 46
37 66 39 48 29 60 -11 14z"/>
<path d="M1255 3356 c-23 -25 -26 -40 -4 -19 12 12 21 24 18 27 -2 2 -9 -1
-14 -8z"/>
<path d="M1208 3293 c-26 -31 -62 -87 -52 -81 11 7 77 98 71 98 -2 0 -11 -8
-19 -17z"/>
<path d="M2305 3239 c-11 -17 1 -21 15 -4 8 9 8 15 2 15 -6 0 -14 -5 -17 -11z"/>
<path d="M8209 3176 c13 -26 17 -29 19 -14 2 11 -2 26 -8 34 -22 25 -28 15
-11 -20z"/>
<path d="M1121 3164 c-12 -20 -20 -38 -18 -40 2 -2 14 14 26 36 28 50 21 53
-8 4z"/>
<path d="M1141 3143 c-17 -21 -31 -41 -31 -46 0 -4 -5 -5 -11 -1 -7 4 -9 -2
-7 -17 2 -16 -2 -23 -10 -21 -9 2 -12 -4 -7 -17 3 -11 1 -22 -5 -26 -5 -3 -10
-19 -10 -36 0 -16 -4 -29 -9 -29 -13 0 -21 -39 -10 -46 16 -9 39 16 39 42 0
31 43 138 76 187 34 51 24 58 -15 10z"/>
<path d="M8280 3159 c-13 -24 -4 -41 10 -19 10 16 13 40 5 40 -2 0 -9 -9 -15
-21z"/>
<path d="M2473 3138 c-43 -57 -66 -91 -58 -86 12 7 78 98 72 98 -3 0 -9 -6
-14 -12z"/>
<path d="M1979 3082 c-79 -53 -157 -115 -163 -129 -3 -7 37 19 88 57 51 39 97
70 103 70 5 0 18 9 28 20 28 31 6 24 -56 -18z"/>
<path d="M8230 3108 c0 -7 16 -38 36 -68 28 -43 34 -49 29 -27 -10 48 -39 107
-52 107 -7 0 -13 -6 -13 -12z"/>
<path d="M2393 3028 c-46 -60 -66 -91 -56 -84 13 7 77 96 70 96 -3 0 -9 -6
-14 -12z"/>
<path d="M3876 2950 c-38 -10 -83 -29 -99 -41 -17 -12 -76 -45 -131 -72 -56
-27 -121 -64 -146 -81 -44 -30 -47 -31 -180 -32 -134 -2 -197 -12 -193 -30 3
-10 312 -24 328 -15 18 10 100 29 107 25 4 -3 4 -12 1 -22 -5 -16 39 37 57 68
7 12 11 12 24 1 13 -11 22 -11 42 -2 32 14 34 14 34 -6 0 -13 7 -10 33 13 33
32 73 51 116 56 35 4 37 24 3 31 -26 5 -50 33 -38 44 10 11 84 -22 126 -56 51
-40 80 -68 80 -76 0 -6 16 -25 60 -73 17 -19 29 -40 28 -47 -2 -7 8 -22 22
-33 21 -18 22 -21 8 -22 -10 0 -18 -4 -18 -9 0 -13 26 -32 34 -24 4 4 4 0 1
-9 -4 -10 3 -29 15 -46 19 -25 22 -43 22 -110 0 -44 -5 -88 -10 -99 -5 -10
-13 -42 -17 -70 -4 -29 -10 -53 -14 -53 -5 0 -15 19 -24 42 -16 40 -17 41 -36
23 -24 -21 -54 -114 -42 -130 5 -5 11 -21 15 -35 3 -14 15 -36 27 -49 l20 -25
23 29 c22 27 24 28 33 9 6 -10 9 -44 8 -74 -1 -30 2 -57 6 -60 4 -3 4 -23 -1
-44 -8 -36 -8 -37 11 -20 10 9 19 23 19 31 0 7 5 13 10 13 21 0 9 -64 -20
-112 -34 -55 -35 -58 -16 -58 9 0 16 -12 18 -32 3 -31 5 -33 36 -30 17 2 32 1
32 -2 0 -3 -19 -29 -43 -58 -71 -87 -97 -131 -97 -162 0 -29 0 -29 21 -10 11
10 28 31 37 46 9 16 24 28 33 28 9 0 41 27 72 60 57 60 88 79 68 41 -8 -14 -6
-33 4 -67 9 -32 11 -52 5 -58 -6 -6 -10 -23 -10 -39 0 -52 -104 -124 -221
-152 -72 -17 -230 -20 -245 -5 -6 6 -21 6 -39 1 l-30 -8 35 -6 c166 -28 209
-30 277 -12 90 24 173 66 214 109 19 20 46 48 60 63 15 16 39 36 54 47 26 18
27 21 22 85 -4 36 -7 77 -9 90 -3 22 3 25 88 46 97 25 159 51 187 83 17 18 67
195 67 238 0 42 -59 110 -156 179 -52 37 -98 74 -101 82 -6 16 10 48 93 185
69 113 81 154 65 210 -18 59 -85 154 -129 182 -36 22 -148 70 -207 88 -168 50
-398 63 -529 28z m354 -89 c47 -40 50 -56 9 -46 -39 10 -81 49 -73 68 9 24 13
22 64 -22z m-14 -57 c15 4 37 -7 79 -39 65 -51 84 -73 85 -96 0 -9 9 -24 19
-33 19 -17 38 -116 27 -135 -15 -24 -83 35 -120 106 -29 54 -32 45 -11 -42 17
-71 19 -99 5 -90 -5 3 -10 17 -10 31 0 15 -6 24 -16 24 -13 0 -14 3 -5 14 16
19 -26 121 -44 106 -9 -8 -17 -4 -29 14 -21 33 -20 39 4 33 11 -3 20 -4 20 -2
0 9 -47 103 -63 125 -28 39 -19 48 12 11 20 -25 33 -32 47 -27z m469 -213
c-20 -20 -29 -8 -14 18 10 14 15 17 21 8 4 -7 1 -18 -7 -26z m-470 -11 c3 -5
1 -10 -4 -10 -6 0 -11 5 -11 10 0 6 2 10 4 10 3 0 8 -4 11 -10z m335 -40 c0
-16 -44 -50 -65 -50 -8 0 26 64 38 72 16 10 27 0 27 -22z m-257 -162 c6 -66 6
-67 -15 -59 -22 8 -34 36 -42 96 -2 17 -7 38 -11 47 -5 13 -1 20 16 27 20 7
26 4 35 -18 6 -14 14 -56 17 -93z m346 95 c0 -5 -10 -28 -23 -53 -18 -37 -26
-44 -46 -42 -13 1 -33 12 -43 23 -18 19 -20 19 -37 4 -14 -12 -20 -13 -26 -4
-12 21 34 49 81 49 26 0 47 6 55 15 13 15 40 21 39 8z m-129 -154 c0 -5 -7 -9
-15 -9 -15 0 -20 12 -9 23 8 8 24 -1 24 -14z m-79 -72 c-1 -12 -15 -9 -19 4
-3 6 1 10 8 8 6 -3 11 -8 11 -12z m269 -126 c55 -30 96 -90 94 -136 -2 -38
-16 -95 -25 -101 -5 -3 -16 -21 -24 -40 -8 -19 -20 -34 -28 -34 -8 0 -29 -16
-46 -35 -18 -21 -31 -30 -31 -21 0 8 5 18 10 21 12 7 13 42 2 48 -4 3 -19 3
-33 0 -33 -6 -56 -48 -38 -69 9 -11 8 -14 -5 -14 -9 0 -16 5 -16 11 0 7 -11 8
-31 4 l-31 -7 7 43 c4 27 17 53 31 67 13 13 24 32 24 42 0 11 11 27 25 36 34
22 48 81 40 168 l-7 70 23 -17 c13 -9 40 -25 59 -36z m-500 -1 c0 -6 26 -37
57 -70 46 -49 58 -58 65 -45 5 8 16 15 24 15 8 0 22 16 30 36 19 44 26 39 29
-21 1 -36 -3 -48 -20 -59 -13 -9 -27 -11 -35 -6 -9 5 -19 5 -26 -1 -24 -20
-164 136 -148 163 6 10 24 1 24 -12z m270 -135 c-7 -9 -15 -13 -17 -11 -7 7 7
26 19 26 6 0 6 -6 -2 -15z"/>
<path d="M1780 2920 c0 -5 5 -10 10 -10 6 0 10 5 10 10 0 6 -4 10 -10 10 -5 0
-10 -4 -10 -10z"/>
<path d="M2308 2913 c-8 -10 -34 -45 -58 -78 -28 -40 -33 -50 -14 -30 41 43
101 125 91 125 -2 0 -11 -8 -19 -17z"/>
<path d="M1672 2824 c-63 -67 -122 -147 -122 -165 0 -22 20 -6 44 35 30 52 89
106 116 106 11 0 24 9 30 19 12 23 13 71 2 71 -4 0 -36 -30 -70 -66z"/>
<path d="M1055 2861 c-3 -5 -1 -12 5 -16 5 -3 10 1 10 9 0 18 -6 21 -15 7z"/>
<path d="M1780 2855 c0 -8 5 -15 10 -15 6 0 10 7 10 15 0 8 -4 15 -10 15 -5 0
-10 -7 -10 -15z"/>
<path d="M8158 2775 c4 -36 22 -39 22 -4 0 10 2 19 5 19 12 0 111 -53 140 -75
34 -25 75 -48 75 -41 0 17 -210 136 -239 136 -4 0 -5 -16 -3 -35z"/>
<path d="M8574 2721 c17 -17 34 -31 39 -31 14 0 -23 39 -48 52 -14 8 -12 2 9
-21z"/>
<path d="M9100 2743 c0 -7 9 -27 20 -45 16 -26 20 -29 20 -13 0 21 -39 78 -40
58z"/>
<path d="M7373 2723 c26 -2 67 -2 90 0 23 2 2 3 -48 3 -49 0 -68 -1 -42 -3z"/>
<path d="M7533 2723 c9 -2 23 -2 30 0 6 3 -1 5 -18 5 -16 0 -22 -2 -12 -5z"/>
<path d="M2153 2705 c-3 -9 -3 -18 -1 -21 3 -3 8 4 11 16 6 23 -1 27 -10 5z"/>
<path d="M7793 2713 c9 -2 25 -2 35 0 9 3 1 5 -18 5 -19 0 -27 -2 -17 -5z"/>
<path d="M7883 2713 c15 -2 37 -2 50 0 12 2 0 4 -28 4 -27 0 -38 -2 -22 -4z"/>
<path d="M7067 2688 c-15 -11 -11 -13 25 -14 30 0 74 -16 146 -50 56 -28 101
-46 99 -41 -5 16 -209 117 -237 117 -9 0 -24 -6 -33 -12z"/>
<path d="M8642 2693 c-9 -4 -10 -8 -2 -18 8 -10 6 -24 -9 -56 -12 -24 -21 -49
-21 -56 0 -8 -7 -27 -15 -42 -8 -16 -11 -31 -8 -35 10 -10 43 25 43 45 0 10 5
21 10 24 6 3 10 17 10 30 0 29 16 41 35 25 10 -8 15 -9 15 -2 0 6 -4 14 -10
17 -5 3 -10 19 -10 35 0 28 -14 41 -38 33z"/>
<path d="M2170 2651 c0 -5 7 -14 16 -22 14 -11 11 -15 -23 -36 -33 -21 -81
-45 -133 -67 -8 -3 -1 -4 15 0 27 5 195 90 195 99 0 3 -60 35 -67 35 -1 0 -3
-4 -3 -9z"/>
<path d="M1516 2619 c-10 -17 -16 -33 -13 -36 3 -3 13 9 22 27 21 41 14 48 -9
9z"/>
<path d="M6884 2602 c-55 -26 -125 -58 -155 -71 -30 -14 -81 -37 -114 -52 -87
-39 -196 -74 -331 -105 -141 -32 -196 -40 -246 -36 -36 3 -37 5 -49 58 -18 78
-39 73 -39 -11 0 -51 -4 -66 -18 -74 -24 -13 -112 -2 -112 15 0 27 -19 23 -39
-10 -18 -29 -28 -34 -73 -40 -46 -5 -55 -3 -67 14 -18 27 -38 25 -45 -5 -4
-14 -13 -25 -21 -25 -9 0 -21 11 -27 25 -13 29 -26 32 -35 9 -3 -9 -17 -27
-30 -40 -22 -22 -23 -29 -17 -91 9 -88 20 -109 29 -55 15 93 33 39 79 -248 9
-52 20 -120 25 -150 7 -43 6 -58 -5 -71 -8 -8 -14 -28 -14 -42 0 -15 -4 -27
-10 -27 -5 0 -10 6 -10 14 0 7 -6 19 -14 25 -13 11 -14 1 -9 -66 7 -96 26
-125 68 -103 25 13 28 12 44 -9 20 -26 41 -21 41 10 0 24 27 25 53 1 15 -13
21 -14 24 -4 17 46 66 54 109 17 35 -30 44 -31 51 -5 3 11 13 20 23 20 10 0
23 7 30 15 7 8 20 15 30 15 19 0 43 -23 34 -32 -3 -3 6 -29 20 -57 34 -66 56
-61 56 14 0 30 5 57 13 62 6 6 37 13 67 17 30 4 89 11 130 17 101 12 349 12
435 0 154 -22 427 -32 575 -21 182 13 305 27 350 40 40 11 54 12 -160 -11
-119 -13 -491 -16 -562 -5 -39 6 -48 11 -48 27 0 16 -3 18 -19 9 -13 -7 -22
-7 -26 0 -9 15 -41 12 -55 -5 -17 -21 -30 -19 -30 5 0 23 -20 26 -39 8 -10
-11 -14 -10 -22 5 -7 13 -15 15 -28 8 -23 -13 -225 -18 -274 -8 -27 6 -37 5
-32 -2 4 -7 -17 -11 -65 -11 -68 0 -71 1 -81 28 -6 15 -17 70 -25 122 -7 52
-20 120 -29 150 -46 167 -56 215 -65 320 -9 103 -8 116 7 128 9 6 25 12 35 12
51 0 340 85 431 127 148 68 397 192 397 198 0 9 -15 4 -116 -43z m-1134 -432
c6 -12 10 -44 9 -73 -8 -196 9 -397 43 -505 15 -49 3 -50 -22 -2 -13 26 -19
51 -16 66 3 12 2 44 -3 71 -42 218 -71 393 -71 431 0 27 4 32 25 32 14 0 29
-8 35 -20z m241 -171 c30 -155 51 -393 32 -374 -14 15 -30 96 -59 313 -22 172
-25 236 -8 220 2 -3 18 -75 35 -159z m-71 21 c5 -41 16 -131 24 -200 9 -69 15
-141 15 -160 l-1 -35 -14 45 c-26 81 -43 207 -49 365 -6 125 10 116 25 -15z
m-276 -30 c23 -117 56 -335 56 -373 0 -23 -3 -28 -11 -20 -7 7 -13 44 -15 82
-1 39 -7 94 -13 123 -21 105 -40 214 -46 263 -8 72 9 29 29 -75z m389 48 c25
-89 54 -338 40 -338 -5 0 -18 64 -31 143 -28 185 -36 247 -29 247 3 0 12 -24
20 -52z m-153 -157 c11 -85 20 -168 19 -185 l-1 -31 -9 30 c-15 46 -39 242
-38 304 1 77 5 60 29 -118z m-176 -26 l6 -80 -15 70 c-8 39 -16 99 -20 135
l-5 65 14 -55 c8 -30 17 -91 20 -135z m-95 30 c0 -63 -15 -13 -23 75 l-6 75
15 -55 c8 -30 14 -73 14 -95z m215 -7 c9 -59 16 -128 15 -155 -1 -46 -1 -46
-10 -17 -24 83 -48 307 -31 289 5 -5 17 -58 26 -117z m315 13 c12 -73 15 -138
6 -129 -5 4 -34 168 -35 191 0 4 4 7 9 7 4 0 13 -31 20 -69z m-522 -93 c-3 -8
-6 -5 -6 6 -1 11 2 17 5 13 3 -3 4 -12 1 -19z m110 -170 c-3 -8 -6 -5 -6 6 -1
11 2 17 5 13 3 -3 4 -12 1 -19z m-77 -8 c0 -5 -4 -10 -10 -10 -5 0 -10 5 -10
10 0 6 5 10 10 10 6 0 10 -4 10 -10z"/>
<path d="M9138 2613 c2 -21 7 -47 12 -58 5 -11 11 -27 14 -35 4 -8 4 10 1 42
-3 31 -8 63 -11 72 -11 29 -20 17 -16 -21z"/>
<path d="M8756 2568 c14 -25 48 -58 60 -58 6 0 18 -10 27 -22 8 -13 18 -20 22
-16 4 4 -16 30 -45 58 -50 47 -80 65 -64 38z"/>
<path d="M7390 2561 c0 -10 30 -24 37 -17 3 2 -5 9 -16 16 -12 6 -21 7 -21 1z"/>
<path d="M4032 2525 c-7 -8 -11 -15 -10 -16 2 0 21 -2 43 -4 l40 -4 -24 19
c-27 24 -32 24 -49 5z"/>
<path d="M1011 2503 c1 -10 5 -29 9 -43 7 -22 8 -21 9 12 1 20 -3 40 -9 43 -5
3 -10 -2 -9 -12z"/>
<path d="M9203 2405 c-7 -38 -16 -80 -19 -92 -4 -13 -2 -23 4 -23 19 0 33 57
30 121 l-3 64 -12 -70z"/>
<path d="M1475 2423 c-3 -15 -11 -31 -17 -34 -7 -5 -8 -25 -1 -65 8 -43 11
-50 12 -26 1 29 4 32 21 27 15 -5 20 -2 20 14 0 11 -5 23 -11 26 -6 4 2 18 21
35 31 27 31 29 12 39 -33 18 -49 13 -57 -16z"/>
<path d="M1716 2428 c4 -13 9 -25 13 -28 10 -9 51 -69 51 -76 0 -4 -8 -13 -17
-20 -16 -12 -15 -13 13 -14 16 0 35 -5 41 -11 13 -13 43 -5 43 11 0 5 -7 10
-15 10 -8 0 -26 20 -40 44 -14 23 -34 51 -45 61 -11 10 -20 24 -20 32 0 7 -7
13 -16 13 -11 0 -14 -6 -8 -22z"/>
<path d="M8857 2429 c-3 -13 -1 -19 6 -16 15 5 22 37 9 37 -5 0 -12 -9 -15
-21z"/>
<path d="M8620 2419 c0 -5 5 -7 10 -4 6 3 10 8 10 11 0 2 -4 4 -10 4 -5 0 -10
-5 -10 -11z"/>
<path d="M2305 2401 c3 -6 14 -11 23 -11 10 0 28 -7 40 -16 12 -8 22 -11 22
-6 0 13 60 8 92 -8 16 -7 34 -9 45 -5 17 8 17 8 -2 12 -11 3 -45 13 -75 23
-62 20 -156 27 -145 11z"/>
<path d="M7850 2385 c0 -18 264 -114 277 -101 3 3 0 8 -8 10 -86 27 -201 67
-231 80 -21 9 -38 14 -38 11z"/>
<path d="M8800 2375 c-6 -8 -9 -19 -5 -24 3 -6 0 -9 -7 -7 -7 2 -28 7 -45 10
-36 6 -43 -8 -21 -43 9 -15 17 -17 34 -11 12 5 24 6 27 3 7 -7 85 48 92 65 3
9 -2 8 -17 -3 -30 -20 -41 -19 -35 5 6 23 -5 26 -23 5z"/>
<path d="M1651 2354 c0 -11 3 -14 6 -6 3 7 2 16 -1 19 -3 4 -6 -2 -5 -13z"/>
<path d="M1903 2333 c-13 -2 -23 -9 -23 -14 0 -13 21 -11 50 6 25 14 17 16
-27 8z"/>
<path d="M2426 2325 c7 -18 44 -40 44 -27 0 10 -33 42 -43 42 -3 0 -4 -7 -1
-15z"/>
<path d="M8205 2319 c-4 -6 -5 -13 -2 -16 7 -7 27 6 27 18 0 12 -17 12 -25 -2z"/>
<path d="M8253 2288 c-56 -15 -40 -34 40 -47 109 -17 205 -22 212 -11 6 9 -8
12 -75 14 -41 2 -93 17 -120 36 -19 13 -33 15 -57 8z"/>
<path d="M8160 2279 c0 -5 5 -7 10 -4 6 3 10 8 10 11 0 2 -4 4 -10 4 -5 0 -10
-5 -10 -11z"/>
<path d="M1502 2263 c2 -10 11 -19 21 -21 16 -3 17 -1 5 17 -16 25 -31 27 -26
4z"/>
<path d="M1640 2270 c-8 -5 -31 -16 -50 -25 l-35 -14 50 6 c28 3 61 10 75 15
24 10 24 11 5 18 -25 11 -27 11 -45 0z"/>
<path d="M2514 2228 c15 -21 34 -60 43 -88 19 -58 28 -59 18 -3 -4 26 -20 54
-47 84 -36 40 -38 41 -14 7z"/>
<path d="M1124 2216 c-3 -8 -1 -23 5 -33 9 -15 10 -13 11 15 0 34 -7 42 -16
18z"/>
<path d="M8538 2223 c7 -3 16 -2 19 1 4 3 -2 6 -13 5 -11 0 -14 -3 -6 -6z"/>
<path d="M9119 2150 c-18 -15 -20 -19 -8 -20 9 0 24 9 34 20 23 26 4 26 -26 0z"/>
<path d="M1219 2053 c17 -33 115 -113 136 -113 3 0 -25 29 -62 65 -68 65 -92
81 -74 48z"/>
<path d="M1433 1943 c16 -15 154 -63 182 -62 26 0 27 2 10 9 -11 5 -30 9 -43
9 -12 1 -40 12 -62 26 -34 22 -105 37 -87 18z"/>
<path d="M8965 1905 c-16 -13 -27 -26 -25 -29 6 -5 30 13 49 37 18 23 12 21
-24 -8z"/>
<path d="M1690 1870 c0 -5 7 -10 15 -10 8 0 15 5 15 10 0 6 -7 10 -15 10 -8 0
-15 -4 -15 -10z"/>
<path d="M8636 1735 c-11 -8 -17 -17 -14 -20 2 -3 13 4 23 15 21 23 18 25 -9
5z"/>
<path d="M8538 1674 c-38 -20 -186 -47 -223 -40 -22 4 -26 3 -15 -4 8 -5 25
-10 38 -10 13 0 20 -4 17 -10 -3 -5 3 -10 15 -10 13 0 19 4 14 11 -5 9 7 10
44 7 28 -3 49 -1 46 4 -3 4 6 8 20 8 13 0 26 5 28 11 3 9 19 13 80 18 4 1 5 8
2 16 -8 19 -31 19 -66 -1z"/>
<path d="M3720 1311 c0 -4 27 -17 60 -29 33 -11 58 -16 55 -12 -3 5 -22 14
-43 20 -20 7 -41 16 -46 21 -13 11 -26 12 -26 0z"/>
</g>
</svg>
